<?xml version="1.0" standalone="no"?>
<!DOCTYPE svg PUBLIC "-//W3C//DTD SVG 1.1//EN" "http://www.w3.org/Graphics/SVG/1.1/DTD/svg11.dtd" >
<svg xmlns="http://www.w3.org/2000/svg" xmlns:xlink="http://www.w3.org/1999/xlink" version="1.1">
<metadata>
Created by FontForge 20190801 at Thu Aug 13 07:47:54 2020
 By www-data
</metadata>
<defs>
<font id="PuntaRegular" horiz-adv-x="543" >
  <font-face 
    font-family="PuntaRegular"
    font-weight="400"
    font-stretch="normal"
    units-per-em="1000"
    panose-1="0 0 0 0 0 0 0 0 0 0"
    ascent="800"
    descent="-200"
    x-height="500"
    cap-height="700"
    bbox="-136 -255 1297 989"
    underline-thickness="50"
    underline-position="-125"
    unicode-range="U+000D-FB05"
  />
<missing-glyph horiz-adv-x="250" 
 />
    <glyph glyph-name=".notdef" horiz-adv-x="250" 
 />
    <glyph glyph-name=".null" horiz-adv-x="0" 
 />
    <glyph glyph-name=".null" horiz-adv-x="0" 
 />
    <glyph glyph-name="uni000D" unicode="&#xd;" horiz-adv-x="250" 
 />
    <glyph glyph-name="space" unicode=" " horiz-adv-x="170" 
 />
    <glyph glyph-name="exclam" unicode="!" horiz-adv-x="286" 
d="M85 700h100v-383l-9 -117h-81l-10 117v383zM135 117q27 0 46.5 -19.5t19.5 -46.5t-19.5 -46.5t-46.5 -19.5t-46.5 19.5t-19.5 46.5t19.5 46.5t46.5 19.5z" />
    <glyph glyph-name="quotedbl" unicode="&#x22;" horiz-adv-x="380" 
d="M65 700h83v-168l-10 -80h-63l-10 80v168zM223 532v168h83v-168l-10 -80h-63z" />
    <glyph glyph-name="numbersign" unicode="#" horiz-adv-x="682" 
d="M522 178v-178h-100v178h-168v-178h-100v178h-111v89h111v164h-111v89h111v179h100v-179h168v179h100v-179h119v-89h-119v-164h119v-89h-119zM254 431v-164h168v164h-168z" />
    <glyph glyph-name="dollar" unicode="$" horiz-adv-x="576" 
d="M117 219q0 -21 9 -41t24.5 -38t37.5 -32.5t47 -23.5v238q-26 7 -60.5 18.5t-65 33t-51.5 55t-21 84.5q0 43 17.5 77.5t46 59.5t64 41t70.5 21v65h100v-67q46 -7 84.5 -24t66.5 -43.5t44 -62.5t16 -80h-100q0 46 -27 77.5t-84 42.5v-234q49 -14 89 -30.5t68.5 -39.5
t44 -54.5t15.5 -74.5q0 -52 -17 -89t-46.5 -61t-69 -36t-84.5 -15v-82h-100v87q-42 8 -81.5 26.5t-69.5 47t-48.5 67t-18.5 87.5h100zM335 294v-218q60 6 89 32.5t29 68.5q0 28 -7 46.5t-21 31t-36.5 21.5t-53.5 18zM235 414v206q-42 -9 -70 -36.5t-29 -75.5
q1 -18 9.5 -32.5t22 -26t31 -20t36.5 -15.5z" />
    <glyph glyph-name="percent" unicode="%" horiz-adv-x="830" 
d="M166 0l278 700h107l-278 -700h-107zM141 727q30 0 55.5 -10.5t44 -29.5t29 -45.5t10.5 -57.5t-10.5 -57t-29 -45t-44 -30t-55.5 -11t-55 11t-44 30t-29.5 45t-10.5 57t10.5 57.5t29.5 45.5t44 29.5t55 10.5zM583 273q30 0 55.5 -10.5t44 -29.5t29 -45t10.5 -57
t-10.5 -57.5t-29.5 -45.5t-44 -30t-55 -11t-55.5 11t-44 30t-29 45.5t-10.5 57.5t10.5 57t29.5 45t44 29.5t55 10.5zM141 511q28 0 46.5 21t18.5 52t-18.5 52t-46.5 21t-46 -20.5t-18 -52.5q0 -31 18 -52t46 -21zM583 58q28 -1 46.5 20t18.5 52q0 32 -18.5 52.5t-46.5 20.5
t-46.5 -20.5t-18.5 -52.5q0 -31 18.5 -51.5t46.5 -20.5z" />
    <glyph glyph-name="ampersand" unicode="&#x26;" horiz-adv-x="627" 
d="M26 215q0 75 39.5 131t105.5 82l-131 183v89h428v-89h-310l290 -407l81 81l64 -65l-89 -94l89 -126h-118l-39 55l-5 -6q-31 -32 -77 -48t-90 -16q-51 0 -94.5 17.5t-75.5 48.5t-50 73t-18 91zM122 214q0 -30 11.5 -55.5t31 -44t45 -29.5t54.5 -11q18 0 31.5 3t25 9t22 15
t23.5 20l13 14l-152 214q-44 -12 -74.5 -48t-30.5 -87z" />
    <glyph glyph-name="quotesingle" unicode="'" horiz-adv-x="185" 
d="M51 532v168h83v-168l-10 -80h-63z" />
    <glyph glyph-name="parenleft" unicode="(" horiz-adv-x="239" 
d="M55 -76v814q0 34 20.5 54.5t54.5 20.5h99v-89h-74v-786h74v-89h-99q-34 0 -54.5 20.5t-20.5 54.5z" />
    <glyph glyph-name="parenright" unicode=")" horiz-adv-x="316" 
d="M55 -62h74v786h-74v89h99q34 0 54.5 -20.5t20.5 -54.5v-814q0 -34 -20.5 -54.5t-54.5 -20.5h-99v89z" />
    <glyph glyph-name="asterisk" unicode="*" horiz-adv-x="424" 
d="M137 550l-73 49l46 69l60 -40v72h83v-72l60 40l46 -69l-73 -49l73 -48l-46 -69l-60 40v-72h-83v72l-60 -40l-46 69z" />
    <glyph glyph-name="plus" unicode="+" horiz-adv-x="581" 
d="M235 368v122h95v-122h120v-89h-120v-123h-95v123h-120v89h120z" />
    <glyph glyph-name="comma" unicode="," horiz-adv-x="182" 
d="M80 95q23 0 39 -16t16 -39q0 -18 -6 -38q-6 -17 -18.5 -38.5t-38.5 -43.5q-4 5 -8 11t-8 11q-5 6 -9 12q15 16 20 33q-18 5 -30 19.5t-12 33.5q0 23 16 39t39 16z" />
    <glyph glyph-name="hyphen" unicode="-" horiz-adv-x="335" 
d="M53 368h228v-89h-228v89z" />
    <glyph glyph-name="period" unicode="." horiz-adv-x="179" 
d="M26 40q0 23 16 39t39 16t39 -16t16 -39t-16 -39t-39 -16t-39 16t-16 39z" />
    <glyph glyph-name="slash" unicode="/" horiz-adv-x="403" 
d="M270 700h106l-267 -700h-107z" />
    <glyph glyph-name="zero" unicode="0" horiz-adv-x="603" 
d="M17 350q0 75 21.5 141.5t59.5 116t90.5 78.5t114.5 29t114 -28.5t89.5 -78t58.5 -116t21 -142.5q0 -75 -21 -141.5t-58.5 -116t-89.5 -78.5t-114 -29t-114.5 29t-90.5 78.5t-59.5 116t-21.5 141.5zM303 74q44 0 78 20t57.5 56.5t35.5 87t12 111.5t-12 112t-35.5 87.5
t-58 56.5t-78.5 20q-43 0 -77.5 -20t-58.5 -56.5t-36.5 -87t-12.5 -111.5t12.5 -112t36.5 -87.5t58.5 -56.5t78.5 -20z" />
    <glyph glyph-name="one" unicode="1" horiz-adv-x="339" 
d="M18 570l146 130h116v-700h-100v581l-91 -81z" />
    <glyph glyph-name="two" unicode="2" horiz-adv-x="529" 
d="M34 0v101q0 55 15.5 93.5t39.5 65.5t53.5 44t58.5 30q36 16 71.5 31t64 33.5t46 44.5t18.5 63q-1 63 -36.5 91t-91.5 28q-38 0 -63.5 -9.5t-41 -27t-22 -42.5t-6.5 -56h-101q0 55 17.5 97t48 70.5t72 43t90.5 14.5q42 0 84 -13.5t75.5 -40.5t54 -66.5t20.5 -91.5
q0 -60 -27 -102t-68 -72t-89 -50t-90 -37q-24 -10 -41.5 -22.5t-29 -30.5t-17 -42.5t-5.5 -57.5h361v-89h-461z" />
    <glyph glyph-name="three" unicode="3" horiz-adv-x="522" 
d="M23 216h104v-1q0 -30 10 -56t28 -44.5t42.5 -29.5t53.5 -11t54.5 11t45 29.5t31 44t11.5 55.5q0 29 -11.5 54.5t-31 44.5t-45 30t-54.5 11h-7.5t-8.5 -1v89l121 169h-309v89h428v-89l-131 -183q66 -25 105.5 -81.5t39.5 -131.5q0 -49 -18 -91t-50 -73t-75.5 -48.5
t-94.5 -17.5t-94.5 17.5t-75.5 48.5t-50 73.5t-18 91.5z" />
    <glyph glyph-name="four" unicode="4" horiz-adv-x="557" 
d="M18 239l346 461h99v-461h77v-89h-77v-150h-100v150h-345v89zM133 239h230v306z" />
    <glyph glyph-name="five" unicode="5" horiz-adv-x="508" 
d="M117 172q13 -44 47 -71t81 -27q29 0 53.5 11t42.5 29.5t28 44.5t10 56t-10 55t-28 44t-42.5 29.5t-53.5 10.5h-7.5t-8.5 -1q-28 -3 -51 -16.5t-39 -35.5l-93 45l53 354h349v-89h-265l-27 -182q34 12 73 15h17q51 0 94.5 -17.5t75 -48t49.5 -72.5t18 -91t-18 -91t-50 -73
t-75.5 -48.5t-94.5 -17.5q-40 0 -76 11.5t-65.5 31.5t-50.5 48.5t-33 62.5z" />
    <glyph glyph-name="six" unicode="6" horiz-adv-x="514" 
d="M24 229q0 36 8.5 68t24.5 60l186 343h106l-128 -234q18 3 37 3q50 0 92.5 -18.5t73.5 -51t48.5 -76.5t17.5 -96t-17.5 -96t-49 -76.5t-74 -51t-92.5 -18.5t-93 18.5t-74 51.5t-48.5 77.5t-17.5 96.5zM114 227q0 -34 11 -63.5t30 -51t45 -34t57 -12.5t57 12.5t45 34t30 51
t11 63.5t-11 63t-30 50.5t-45.5 33.5t-56.5 12t-56.5 -12t-45.5 -33.5t-30 -50.5t-11 -63z" />
    <glyph glyph-name="seven" unicode="7" horiz-adv-x="487" 
d="M469 700v-89l-236 -611h-106l244 611h-357v89h455z" />
    <glyph glyph-name="eight" unicode="8" horiz-adv-x="528" 
d="M23 206q0 57 27 103.5t74 75.5q-32 26 -50 62.5t-18 79.5q0 41 16 75t44 59.5t66 39.5t83 14t83 -14.5t65.5 -39.5t43.5 -59.5t16 -75.5q0 -43 -18 -79t-49 -62q46 -29 73 -76t27 -105q0 -47 -18.5 -87t-51 -69.5t-76.5 -46t-96 -16.5t-96 17t-76 46.5t-50.5 70
t-18.5 87.5zM265 68q32 0 59 10.5t47 28.5t31 43t11 54q0 27 -10 50t-27 40.5t-41 29t-53 14.5h-35q-57 -6 -94 -43t-37 -91q0 -28 11 -53t31 -43.5t47.5 -29t59.5 -10.5zM265 422q23 0 43.5 7.5t36.5 21t25.5 32.5t9.5 43q0 45 -32.5 74t-82.5 29t-83 -29t-33 -74
q0 -24 9.5 -43.5t26 -33t37.5 -20.5t43 -7z" />
    <glyph glyph-name="nine" unicode="9" horiz-adv-x="519" 
d="M257 715q50 0 93 -18.5t74 -51.5t48.5 -77.5t17.5 -95.5q0 -36 -8.5 -68.5t-24.5 -60.5l-186 -343h-106l128 234q-18 -3 -37 -3q-50 0 -92.5 18.5t-73.5 51t-48.5 76.5t-17.5 96t17.5 96t49 76.5t74 51t92.5 18.5zM114 473q0 -34 11 -63t30 -50.5t45.5 -33.5t56.5 -12
t56.5 12t45.5 33.5t30 50.5t11 63t-11 63.5t-30 51t-45 34t-57 12.5q-30 0 -56.5 -12.5t-45.5 -34t-30 -51t-11 -63.5z" />
    <glyph glyph-name="colon" unicode=":" horiz-adv-x="203" 
d="M34 40q0 23 16 39t39 16t39 -16t16 -39t-16 -39t-39 -16t-39 16t-16 39zM34 297q0 23 16 39t39 16t39 -16t16 -39t-16 -39t-39 -16t-39 16t-16 39z" />
    <glyph glyph-name="semicolon" unicode=";" horiz-adv-x="184" 
d="M83 95q23 0 39 -16t16 -39q0 -18 -6 -38q-6 -17 -18.5 -38.5t-38.5 -43.5q-4 5 -8 11t-8 11q-5 6 -9 12q15 16 20 33q-18 5 -30 19.5t-12 33.5q0 23 16 39t39 16zM28 297q0 23 16 39t39 16t39 -16t16 -39t-16 -39t-39 -16t-39 16t-16 39z" />
    <glyph glyph-name="less" unicode="&#x3c;" horiz-adv-x="590" 
d="M151 239v89l351 171v-98l-237 -117l237 -116v-100z" />
    <glyph glyph-name="equal" unicode="=" horiz-adv-x="397" 
d="M52 348v88h278v-88h-278zM52 183v89h278v-89h-278z" />
    <glyph glyph-name="greater" unicode="&#x3e;" horiz-adv-x="590" 
d="M151 68v100l237 116l-237 117v98l351 -171v-89z" />
    <glyph glyph-name="question" unicode="?" horiz-adv-x="525" 
d="M28 500q0 52 19.5 92t51 67.5t71.5 41.5t82 14q44 0 87 -15.5t77 -44.5t54.5 -71t20.5 -95q0 -35 -9 -60.5t-23.5 -44t-32 -30.5t-34.5 -21q-59 -31 -80 -65t-21 -70h-112q0 59 33.5 111t96.5 79q47 20 64.5 49t17.5 64q0 56 -37.5 90t-100.5 34q-64 0 -99 -34.5
t-35 -90.5h-91zM169 51q0 27 19.5 46.5t46.5 19.5t46.5 -19.5t19.5 -46.5t-19.5 -46.5t-46.5 -19.5t-46.5 19.5t-19.5 46.5z" />
    <glyph glyph-name="at" unicode="@" horiz-adv-x="998" 
d="M501 787q101 0 189 -38t154 -104t104 -154t38 -189q0 -45 -8 -87.5t-22 -81.5q-15 -35 -40 -66.5t-55 -55t-63.5 -37t-65.5 -13.5q-49 0 -79.5 29t-33.5 78v12v68q-12 -24 -23.5 -42t-27.5 -29.5t-36.5 -17.5t-50.5 -6q-42 0 -77 12t-60.5 33.5t-40 51t-14.5 65.5
q0 39 14.5 68t39.5 48.5t58 29t69 9.5h149v77h-257v82h280q31 0 50 -18.5t19 -50.5v-371q0 -17 8 -24.5t22 -7.5t32 8t35.5 24t33 39.5t25.5 53.5q8 29 13 59t5 61q0 81 -30 153t-82.5 125t-122 84t-149.5 31q-79 0 -149 -31t-122.5 -84t-82.5 -125t-30 -153
q0 -82 30 -153.5t82.5 -125t122.5 -84.5t149 -31q51 0 102 14l29 -88q-32 -8 -64.5 -13t-66.5 -5q-100 0 -188.5 38t-154.5 104.5t-104 155t-38 188.5q0 101 38 189t104 154t154.5 104t188.5 38zM482 136q66 0 100.5 40t36.5 117h-142q-44 0 -70 -20.5t-26 -55.5
q0 -17 7.5 -31.5t21 -25.5t32.5 -17.5t40 -6.5z" />
    <glyph glyph-name="A" unicode="A" horiz-adv-x="676" 
d="M26 0l255 700h111l260 -700h-100l-82 224h-265l-80 -224h-99zM237 313h201l-102 277z" />
    <glyph glyph-name="B" unicode="B" horiz-adv-x="583" 
d="M43 700h299q42 0 77 -16t59.5 -42.5t38.5 -61.5t14 -74t-14.5 -76t-42.5 -64q36 -27 56 -67.5t20 -87.5q0 -40 -15.5 -78.5t-43 -67.5t-65 -47t-82.5 -18h-301v700zM345 89q23 0 42 10.5t33 27t22 38.5t8 44q0 45 -28.5 76.5t-76.5 31.5h-202v-228h202zM143 611v-205h207
q23 0 40 9t28 23.5t16.5 32.5t5.5 36q0 43 -28 73.5t-73 30.5h-196z" />
    <glyph glyph-name="C" unicode="C" horiz-adv-x="730" 
d="M23 350q0 78 26.5 145t73 116t111 76.5t139.5 27.5q63 0 118.5 -19.5t99.5 -54.5t75.5 -84t46.5 -108h-104q-13 39 -36 71.5t-54 56t-68 36t-78 12.5q-54 0 -99.5 -21t-79 -58t-52.5 -87.5t-19 -109.5t19 -109.5t52 -87t79 -57.5t100 -21q41 0 78 12.5t68 36t54 55.5
t36 71h103q-15 -58 -46 -107t-75.5 -83.5t-99.5 -54t-118 -19.5q-75 0 -139.5 27.5t-111 76.5t-73 116t-26.5 145z" />
    <glyph glyph-name="D" unicode="D" horiz-adv-x="647" 
d="M51 700h252q72 0 131.5 -27t102 -73.5t65.5 -108.5t23 -131q0 -59 -18 -122.5t-55.5 -116.5t-96 -87t-139.5 -34h-265v700zM151 89h140q60 0 104 21.5t73 58.5t43 88t14 109q0 49 -18 93.5t-50.5 78t-78 53.5t-101.5 20h-126v-522z" />
    <glyph glyph-name="E" unicode="E" horiz-adv-x="566" 
d="M43 700h493v-89h-393v-204h303v-92h-303v-226h395v-89h-495v700z" />
    <glyph glyph-name="F" unicode="F" horiz-adv-x="567" 
d="M43 0v700h491v-89h-391v-196h300v-89h-300v-326h-100z" />
    <glyph glyph-name="G" unicode="G" horiz-adv-x="741" 
d="M16 350q0 78 26.5 145t73 116t111 76.5t139.5 27.5q63 0 118.5 -19.5t99.5 -54.5t75.5 -84t46.5 -108h-104q-13 39 -36 71.5t-54 56t-68 36t-78 12.5q-54 0 -99.5 -21t-79 -58t-52.5 -87.5t-19 -109.5t19 -109.5t52 -87t79 -57.5t100 -21q78 0 138.5 42.5t90.5 113.5
h-220v89l330 1v-320h-100v77q-46 -44 -106.5 -68t-132.5 -24q-75 0 -139.5 27.5t-111 76.5t-73 116t-26.5 145z" />
    <glyph glyph-name="H" unicode="H" horiz-adv-x="664" 
d="M42 0v700h100v-285h380v285h100v-700h-100v326h-380v-326h-100z" />
    <glyph glyph-name="I" unicode="I" horiz-adv-x="228" 
d="M64 700h100v-700h-100v700z" />
    <glyph glyph-name="J" unicode="J" horiz-adv-x="534" 
d="M111 172q18 -42 53.5 -66.5t80.5 -24.5q32 0 58.5 12t46 34t30.5 51.5t11 63.5l-1 458h100l1 -458q0 -55 -18.5 -102t-51.5 -81.5t-78.5 -54t-98.5 -19.5q-44 0 -83 13.5t-70 38.5t-53 59t-33 76h106z" />
    <glyph glyph-name="K" unicode="K" horiz-adv-x="584" 
d="M49 0v700h100v-320l270 320h125l-279 -329l295 -371h-125l-235 295l-51 -61v-234h-100z" />
    <glyph glyph-name="L" unicode="L" horiz-adv-x="580" 
d="M58 700h100v-611h409v-89h-509v700z" />
    <glyph glyph-name="M" unicode="M" horiz-adv-x="797" 
d="M40 700h100l259 -500l258 500h100v-700h-100v506l-209 -401h-98l-210 402v-507h-100v700z" />
    <glyph glyph-name="N" unicode="N" horiz-adv-x="664" 
d="M169 700l353 -565v565h100v-700h-120l-360 576v-576h-100v700h127z" />
    <glyph glyph-name="O" unicode="O" horiz-adv-x="741" 
d="M18 350q0 78 27 145t74 116t111.5 76.5t140.5 27.5q75 0 139.5 -27.5t112 -76.5t74 -116t26.5 -145t-26.5 -145t-73.5 -116t-111.5 -76.5t-140.5 -27.5t-140.5 27.5t-111.5 76.5t-74 116t-27 145zM371 74q54 0 100.5 21t80 58t53 87.5t19.5 109.5t-19 109.5t-53 87
t-80.5 57.5t-100.5 21t-100.5 -21t-80 -58t-53 -87.5t-19.5 -109.5t19.5 -109.5t53 -87t80 -57.5t100.5 -21z" />
    <glyph glyph-name="P" unicode="P" horiz-adv-x="571" 
d="M43 0v700h307q45 0 82 -17t63 -45.5t40.5 -65.5t14.5 -78q0 -44 -16.5 -85.5t-46 -73t-69.5 -50.5t-88 -19h-187v-266h-100zM143 611v-256h187q25 0 46.5 12t38 31t26 44t9.5 50q0 23 -7.5 44t-21 38t-32.5 27t-43 10h-203z" />
    <glyph glyph-name="Q" unicode="Q" horiz-adv-x="758" 
d="M27 350q0 78 26.5 145t73 116t110 76.5t138.5 27.5q74 0 137.5 -27.5t110 -76.5t73.5 -116t27 -145q0 -71 -22 -132.5t-61 -109.5l94 -128h-116l-47 64q-42 -28 -91 -43.5t-105 -15.5q-75 0 -138.5 27.5t-110 76.5t-73 116t-26.5 145zM375 74q40 0 75.5 12t64.5 34
l-111 152h116l60 -81q42 68 42 159q0 59 -18.5 109.5t-51.5 87.5t-78.5 58t-98.5 21q-54 0 -99.5 -21t-78.5 -58t-51.5 -87.5t-18.5 -109.5t19 -109.5t52 -87.5t78.5 -58t98.5 -21z" />
    <glyph glyph-name="R" unicode="R" horiz-adv-x="607" 
d="M355 700q45 0 81.5 -17t63 -45.5t40.5 -65.5t14 -78q0 -37 -12 -72.5t-33.5 -65t-51.5 -51.5t-67 -32l191 -273h-120l-186 266h-127v-266h-100v700h307zM148 355h187q25 0 46.5 12t38 31t26 44t9.5 50q0 23 -7.5 44t-21.5 38t-33 27t-43 10h-202v-256z" />
    <glyph glyph-name="S" unicode="S" horiz-adv-x="569" 
d="M17 219h100q0 -27 14.5 -53t39 -46.5t57.5 -33t70 -12.5q78 0 116.5 27.5t38.5 75.5q0 35 -11 55.5t-34 33.5t-60 23.5t-88 25.5q-21 6 -58.5 16.5t-74 31.5t-63.5 56.5t-27 93.5q0 48 22.5 85.5t56.5 63.5t75.5 39.5t78.5 13.5q57 0 107.5 -14t88 -41.5t59 -67.5
t21.5 -92h-100q0 56 -40 90.5t-123 34.5q-29 0 -55.5 -7t-46.5 -21t-32.5 -36.5t-12.5 -52.5q1 -30 21.5 -50t49.5 -33t61 -21t56 -15q51 -14 93 -31t72 -40t46.5 -55t16.5 -76q0 -57 -20.5 -95.5t-54.5 -62.5t-79 -34t-95 -10t-101 14.5t-92 43.5t-67 73t-26 103z" />
    <glyph glyph-name="T" unicode="T" horiz-adv-x="612" 
d="M17 700h578v-89h-239v-611h-100v611h-239v89z" />
    <glyph glyph-name="U" unicode="U" horiz-adv-x="664" 
d="M142 700v-421q0 -49 14.5 -87t40 -64.5t60.5 -40t76 -13.5t75.5 13.5t60 40t40 64.5t14.5 87v421h100v-421q0 -64 -22 -118t-61 -93t-92 -61t-115 -22t-115.5 22t-92.5 61t-61 93t-22 118v421h100z" />
    <glyph glyph-name="V" unicode="V" horiz-adv-x="676" 
d="M26 700h104l208 -583l209 583h105l-260 -700h-111z" />
    <glyph glyph-name="W" unicode="W" horiz-adv-x="942" 
d="M21 700h99l170 -541l134 541h100l137 -539l162 539h100l-209 -700h-112l-128 501l-123 -501h-111z" />
    <glyph glyph-name="X" unicode="X" horiz-adv-x="668" 
d="M21 700h117l194 -266l197 266h117l-254 -338l263 -362h-117l-204 286l-195 -286h-117l252 362z" />
    <glyph glyph-name="Y" unicode="Y" horiz-adv-x="674" 
d="M31 700h117l193 -300l192 300h111l-253 -388v-312h-100v312z" />
    <glyph glyph-name="Z" unicode="Z" horiz-adv-x="644" 
d="M32 611v89h580v-89l-455 -522h455v-89h-580v89l456 522h-456z" />
    <glyph glyph-name="bracketleft" unicode="[" horiz-adv-x="343" 
d="M54 -201v964h234v-89h-134v-786h134v-89h-234z" />
    <glyph glyph-name="backslash" unicode="\" horiz-adv-x="391" 
d="M270 0l-268 700h106l268 -700h-106z" />
    <glyph glyph-name="bracketright" unicode="]" horiz-adv-x="343" 
d="M54 -112h134v786h-134v89h234v-964h-234v89z" />
    <glyph glyph-name="asciicircum" unicode="^" horiz-adv-x="595" 
d="M239 698v1h100l146 -256h-98l-97 164l-98 -164h-98z" />
    <glyph glyph-name="underscore" unicode="_" horiz-adv-x="452" 
d="M4 -30h444v-79h-444v79z" />
    <glyph glyph-name="grave" unicode="`" horiz-adv-x="317" 
d="M59 700h102l74 -106h-90z" />
    <glyph glyph-name="a" unicode="a" horiz-adv-x="520" 
d="M217 328h162v83h-278v89h303q34 0 54.5 -20.5t20.5 -54.5v-425h-100v87q-13 -26 -26 -45.5t-29.5 -32.5t-39 -19t-54.5 -6q-46 0 -84 13t-66 36t-43.5 55t-15.5 71q0 42 16 74t43 53t62.5 31.5t74.5 10.5zM231 74q72 0 109.5 43t38.5 128h-153q-48 0 -76.5 -22.5
t-28.5 -60.5q0 -18 8 -34t23 -28t35.5 -19t43.5 -7z" />
    <glyph glyph-name="b" unicode="b" horiz-adv-x="530" 
d="M40 700h100v-235q56 50 143 50q55 0 98 -20t73 -55t46 -83t16 -105t-16 -106t-46 -85t-73 -56t-98 -20q-45 0 -80.5 13t-62.5 37v-35h-100v700zM278 74q34 0 61 13.5t46 37.5t29 56.5t10 69.5q0 38 -10 70t-29 55t-46 36.5t-61 13.5q-33 0 -61.5 -13.5t-48.5 -36.5
t-31.5 -55t-11.5 -70q0 -37 11.5 -69.5t31.5 -56.5t48 -37.5t62 -13.5z" />
    <glyph glyph-name="c" unicode="c" horiz-adv-x="519" 
d="M17 242q0 56 18.5 103t51.5 81.5t78.5 54t98.5 19.5q44 0 83 -14t70 -38.5t53.5 -59t32.5 -76.5h-107q-17 42 -52.5 66.5t-80.5 24.5q-31 0 -58 -12t-46.5 -34t-30.5 -51t-11 -64q0 -34 11 -63.5t30.5 -51.5t46 -34t57.5 -12q46 0 81.5 24.5t52.5 66.5h107
q-10 -42 -32.5 -76t-53.5 -59t-70 -38.5t-83 -13.5q-53 0 -98.5 19.5t-78.5 54t-51.5 81.5t-18.5 102z" />
    <glyph glyph-name="d" unicode="d" horiz-adv-x="529" 
d="M14 252q0 57 16 105t46 83t73 55t98 20q45 0 80.5 -13t62.5 -37v235h100v-700h-100v35q-27 -24 -62 -37t-80 -13q-55 0 -98.5 20t-73.5 56t-46 85t-16 106zM252 74q34 0 62 13.5t48.5 37.5t31.5 56.5t11 69.5q0 38 -11 70t-31.5 55t-48.5 36.5t-62 13.5t-61 -13.5
t-46 -36.5t-29 -55t-10 -70q0 -37 10 -69.5t29 -56.5t46 -37.5t61 -13.5z" />
    <glyph glyph-name="e" unicode="e" 
d="M15 251q0 57 19.5 105.5t54 83.5t81.5 55t102 20t102 -20t81.5 -55t54 -83.5t19.5 -105.5q0 -11 -0.5 -20.5t-1.5 -20.5h-408q12 -60 53.5 -98t99.5 -38q46 0 81.5 24t55.5 64h107q-13 -39 -36.5 -72t-55 -56t-70 -36t-82.5 -13q-55 0 -102 20t-81.5 56t-54 84.5
t-19.5 105.5zM425 297q-12 57 -52.5 93t-99.5 36t-99.5 -36t-53.5 -93h305z" />
    <glyph glyph-name="f" unicode="f" horiz-adv-x="283" 
d="M78 500v125q0 34 20.5 54.5t54.5 20.5h100v-89h-75v-111h74v-89h-74v-411h-100v411h-52v89h52z" />
    <glyph glyph-name="g" unicode="g" horiz-adv-x="534" 
d="M19 252q0 57 16 105t46 83t73 55t98 20q45 0 80.5 -13t62.5 -37v35h100l-1 -675q0 -34 -20.5 -54.5t-54.5 -20.5h-350v89h326v196q-27 -24 -62 -37t-80 -13q-55 0 -98.5 20t-73.5 56t-46 85t-16 106zM257 74q34 0 62 13.5t48.5 37.5t31.5 56.5t11 69.5q0 38 -11 70
t-31.5 55t-48.5 36.5t-62 13.5t-61 -13.5t-46 -36.5t-29 -55t-10 -70q0 -37 10 -69.5t29 -56.5t46 -37.5t61 -13.5z" />
    <glyph glyph-name="h" unicode="h" horiz-adv-x="564" 
d="M36 700h100v-252q26 35 69 51.5t102 16.5q108 0 167 -66.5t59 -198.5v-251h-100v250q0 87 -36.5 131.5t-105.5 44.5q-31 0 -59.5 -9.5t-49.5 -28.5t-33.5 -47t-12.5 -66v-275h-100v700z" />
    <glyph glyph-name="i" unicode="i" horiz-adv-x="228" 
d="M64 500h100v-500h-100v500zM48 649q0 27 19.5 46.5t46.5 19.5t46.5 -19.5t19.5 -46.5t-19.5 -46.5t-46.5 -19.5t-46.5 19.5t-19.5 46.5z" />
    <glyph glyph-name="j" unicode="j" horiz-adv-x="252" 
d="M31 -161h75v661h100v-675q0 -34 -20.5 -54.5t-54.5 -20.5h-100v89zM156 583q-27 0 -46.5 19.5t-19.5 46.5t19.5 46.5t46.5 19.5t46.5 -19.5t19.5 -46.5t-19.5 -46.5t-46.5 -19.5z" />
    <glyph glyph-name="k" unicode="k" horiz-adv-x="476" 
d="M53 700h100v-410l177 210h117l-199 -235l211 -265h-117l-154 194l-35 -41v-153h-100v700z" />
    <glyph glyph-name="l" unicode="l" horiz-adv-x="228" 
d="M47 700h100v-606h58v-94h-83q-34 0 -54.5 20.5t-20.5 54.5v625z" />
    <glyph glyph-name="m" unicode="m" horiz-adv-x="804" 
d="M34 0v500h100v-60q41 76 127 76q53 0 94 -24t68 -69q20 49 59.5 71t93.5 22q51 0 89 -18.5t64 -53t39 -83.5t13 -110v-251h-101v250q0 88 -22.5 132t-76.5 44t-84 -42t-33 -117q1 -5 1 -9v-9l-1 -249h-100v250q0 87 -28 131.5t-82 44.5q-55 0 -87.5 -44t-32.5 -119v-263
h-100z" />
    <glyph glyph-name="n" unicode="n" horiz-adv-x="567" 
d="M40 500h100v-52q26 35 69 51.5t102 16.5q108 0 167 -66.5t59 -198.5v-251h-100v250q0 87 -36.5 131.5t-105.5 44.5q-31 0 -59.5 -9.5t-49.5 -28.5t-33.5 -47t-12.5 -66v-275h-100v500z" />
    <glyph glyph-name="o" unicode="o" horiz-adv-x="553" 
d="M277 515q55 0 102 -20t81.5 -55t54 -83.5t19.5 -105.5t-19.5 -105.5t-54 -84.5t-81.5 -56t-102 -20t-102 20t-81.5 56t-54 84.5t-19.5 105.5t19.5 105.5t54 83.5t81.5 55t102 20zM278 74q33 0 61.5 13.5t49.5 37.5t33 56.5t12 69.5q0 38 -12 70t-33 55t-49.5 36.5
t-61.5 13.5q-34 0 -63 -13.5t-50 -36.5t-33 -55t-12 -70q0 -37 12 -69.5t33 -56.5t50 -37.5t63 -13.5z" />
    <glyph glyph-name="p" unicode="p" horiz-adv-x="535" 
d="M40 500h100v-35q56 50 143 50q55 0 98 -20t73 -55t46 -83t16 -105t-16 -106t-46 -85t-73 -56t-98 -20q-45 0 -80.5 13t-62.5 37v-285h-100v750zM278 74q34 0 61 13.5t46 37.5t29 56.5t10 69.5q0 38 -10 70t-29 55t-46 36.5t-61 13.5q-33 0 -61.5 -13.5t-48.5 -36.5
t-31.5 -55t-11.5 -70q0 -37 11.5 -69.5t31.5 -56.5t48 -37.5t62 -13.5z" />
    <glyph glyph-name="q" unicode="q" horiz-adv-x="534" 
d="M14 252q0 57 16 105t46 83t73 55t98 20q45 0 80.5 -13t62.5 -37v35h100v-750h-100v285q-27 -24 -62 -37t-80 -13q-55 0 -98.5 20t-73.5 56t-46 85t-16 106zM252 74q34 0 62 13.5t48.5 37.5t31.5 56.5t11 69.5q0 38 -11 70t-31.5 55t-48.5 36.5t-62 13.5t-61 -13.5
t-46 -36.5t-29 -55t-10 -70q0 -37 10 -69.5t29 -56.5t46 -37.5t61 -13.5z" />
    <glyph glyph-name="r" unicode="r" horiz-adv-x="352" 
d="M145 500l-1 -80q23 40 58 60t86 20h50v-90h-49q-30 0 -56.5 -9.5t-46 -28.5t-30.5 -47t-11 -66v-259h-100v500h100z" />
    <glyph glyph-name="s" unicode="s" horiz-adv-x="463" 
d="M11 155h100q0 -15 9 -29.5t25.5 -26t40.5 -18.5t54 -7q109 0 109 58q0 17 -12 27.5t-32.5 18.5t-47.5 14t-56 14q-39 11 -71 24t-55 30.5t-35.5 41t-12.5 54.5q0 40 18.5 69.5t46.5 49.5t61.5 30t64.5 10q50 0 91.5 -11t71 -31t46 -49.5t16.5 -67.5h-100q0 30 -33.5 50
t-84.5 20q-44 0 -71 -17t-27 -49q0 -15 8.5 -25.5t22.5 -18.5t32.5 -14.5t38.5 -12.5q46 -13 86 -25t69.5 -29t46.5 -42t17 -66q0 -43 -16.5 -70.5t-44.5 -43.5t-64.5 -22t-77.5 -6t-82.5 10.5t-75.5 31.5t-55 53t-21 75z" />
    <glyph glyph-name="t" unicode="t" horiz-adv-x="278" 
d="M7 500h58v100h100v-100h84v-89h-84v-317h73v-94h-99q-34 0 -54 20.5t-20 54.5v336h-58v89z" />
    <glyph glyph-name="u" unicode="u" horiz-adv-x="553" 
d="M126 500v-278q0 -76 32 -109.5t97 -33.5q75 0 113.5 36t39.5 114v271h100v-500h-100v62q-26 -41 -68.5 -59.5t-101.5 -18.5q-53 0 -92.5 16t-66 43t-40 61.5t-13.5 71.5v324h100z" />
    <glyph glyph-name="v" unicode="v" horiz-adv-x="521" 
d="M19 500h106l135 -386l137 386h105l-175 -500h-132z" />
    <glyph glyph-name="w" unicode="w" horiz-adv-x="770" 
d="M14 500h97l124 -377l104 377h97l108 -375l115 375h98l-154 -500h-121l-93 326l-89 -326h-121z" />
    <glyph glyph-name="x" unicode="x" horiz-adv-x="536" 
d="M141 500l124 -169l125 169h114l-182 -242l188 -258h-114l-130 183l-125 -183h-113l180 258l-181 242h114z" />
    <glyph glyph-name="y" unicode="y" horiz-adv-x="567" 
d="M30 231v269h100v-269q0 -77 34.5 -117t107.5 -40q155 0 155 154v272h100v-675q0 -34 -20.5 -54.5t-54.5 -20.5h-350v89h325v217q-24 -38 -65.5 -55t-107.5 -17q-51 0 -92.5 19t-70.5 52.5t-45 78.5t-16 97z" />
    <glyph glyph-name="z" unicode="z" horiz-adv-x="518" 
d="M36 0v89l337 322h-337v89h457v-89l-337 -322h337v-89h-457z" />
    <glyph glyph-name="braceleft" unicode="{" horiz-adv-x="417" 
d="M86 286q28 7 47 22t31 35.5t18 45t6 51.5v248q0 34 20.5 54.5t54.5 20.5h99v-89h-56q-18 0 -18 -18v-300q0 -23 -8.5 -43t-30.5 -28q-8 -3 -8 -4t8 -5q22 -8 30.5 -27.5t8.5 -42.5v-290q0 -28 28 -28h46v-89h-99q-34 0 -54.5 20.5t-20.5 54.5v248q0 27 -6 51.5t-18 45
t-31 35.5t-47 22q-14 4 -14 5t14 5z" />
    <glyph glyph-name="bar" unicode="|" horiz-adv-x="568" 
d="M229 757h100v-818h-100v818z" />
    <glyph glyph-name="braceright" unicode="}" horiz-adv-x="363" 
d="M42 -112h46q28 0 28 28v290q0 23 8.5 42.5t30.5 27.5q8 4 8 5t-8 4q-22 8 -30.5 28t-8.5 43v318h-74v89h103q32 0 51.5 -19.5t19.5 -51.5v-252q0 -27 6 -51.5t18 -45t31 -35.5t47 -22q14 -4 14 -5t-14 -5q-28 -7 -47 -22t-31 -35.5t-18 -45t-6 -51.5v-258
q0 -29 -17.5 -47t-46.5 -18h-110v89z" />
    <glyph glyph-name="asciitilde" unicode="~" horiz-adv-x="580" 
d="M98 281v83q17 -5 36.5 -8t43.5 -3q40 0 69 7.5t55 17t52.5 17t61.5 7.5q23 0 42.5 -4t37.5 -10v-83q-18 6 -37.5 10t-42.5 4q-35 0 -61.5 -7.5t-52.5 -17t-55 -17t-69 -7.5q-24 0 -43.5 3t-36.5 8z" />
    <glyph glyph-name="exclamdown" unicode="&#xa1;" horiz-adv-x="286" 
d="M85 133l10 117h81l9 -117v-383h-100v383zM135 465q27 0 46.5 -19.5t19.5 -46.5t-19.5 -46.5t-46.5 -19.5t-46.5 19.5t-19.5 46.5t19.5 46.5t46.5 19.5z" />
    <glyph glyph-name="cent" unicode="&#xa2;" horiz-adv-x="581" 
d="M75 325q0 47 13.5 88t38.5 74t59 55.5t76 32.5v125h108v-122q72 -14 122.5 -62.5t68.5 -120.5h-107q-12 29 -33.5 50t-50.5 32v-305q59 22 84 82h107q-18 -72 -68.5 -120.5t-122.5 -61.5v-121h-108v123q-42 10 -76 32.5t-59 55.5t-38.5 74.5t-13.5 88.5zM175 324
q0 -51 23.5 -90.5t63.5 -57.5v297q-40 -18 -63.5 -57.5t-23.5 -91.5z" />
    <glyph glyph-name="sterling" unicode="&#xa3;" horiz-adv-x="578" 
d="M2 362h55v72v17q0 57 19.5 105.5t54 83.5t81.5 55t102 20t102 -20t81.5 -55t54 -83.5t19.5 -105.5h-100q0 38 -12 70t-33 55t-49.5 36.5t-62.5 13.5q-33 0 -62 -13.5t-50 -36.5t-33 -55t-12 -70v-89h216v-89h-216v-184h409v-89h-509v273h-55v89z" />
    <glyph glyph-name="currency" unicode="&#xa4;" horiz-adv-x="586" 
d="M81 139l86 87q-14 21 -22.5 46.5t-8.5 53.5t8.5 54t24.5 48l-2 -2l-86 87l45 45l87 -86q22 15 47.5 24t54.5 9t54.5 -9t47.5 -24l87 86l45 -45l-86 -87l-2 2q16 -22 24.5 -48t8.5 -54t-8.5 -53.5t-22.5 -46.5l86 -87l-45 -45l-86 86q-22 -16 -48 -24.5t-55 -8.5t-55 8.5
t-48 24.5l-86 -86zM315 221q21 0 40.5 8.5t33.5 22.5t22.5 33.5t8.5 40.5t-8.5 40t-22.5 33.5t-33.5 22.5t-40.5 8t-40.5 -8t-33.5 -22.5t-22.5 -33.5t-8.5 -40t8.5 -40.5t22.5 -33.5t33.5 -22.5t40.5 -8.5z" />
    <glyph glyph-name="yen" unicode="&#xa5;" horiz-adv-x="674" 
d="M42 700h117l193 -300l192 300h111l-253 -388v-312h-100v312zM204 229v88h278v-88h-278zM204 64v89h278v-89h-278z" />
    <glyph glyph-name="brokenbar" unicode="&#xa6;" horiz-adv-x="568" 
d="M229 286h100v-373h-100v373zM329 773v-373h-100v373h100z" />
    <glyph glyph-name="section" unicode="&#xa7;" horiz-adv-x="520" 
d="M41 355q0 39 17.5 65t44.5 43q-22 17 -34 39.5t-12 53.5q0 40 18.5 70t46.5 50t61.5 30t64.5 10q50 0 91.5 -11t71 -31.5t46 -50t16.5 -66.5h-100q0 29 -33.5 49.5t-84.5 20.5q-44 0 -71 -17t-27 -49q0 -15 8.5 -25.5t22.5 -18.5t32.5 -14.5t38.5 -12.5q46 -13 86 -25
t69.5 -29.5t46.5 -42.5t17 -66q0 -42 -16.5 -69.5t-44.5 -43.5q26 -20 43.5 -46t17.5 -59q0 -43 -16.5 -70.5t-44.5 -43.5t-64.5 -22t-77.5 -6t-82.5 10.5t-75.5 31.5t-55 53t-21 74h100q0 -14 9 -28.5t25.5 -26t40.5 -18.5t54 -7q109 0 109 57q0 17 -14 27.5t-37 17.5
t-52 13t-58 14q-31 9 -63 22.5t-57 33.5t-41 48t-16 66zM270 274q55 0 80 14.5t24 43.5v6h-1v3q-5 23 -35 34.5t-72 22.5q-9 2 -17.5 3t-16.5 2q-17 1 -29.5 0t-19.5 -3q-19 -6 -30.5 -16.5t-11.5 -28.5q0 -22 14 -37t34 -25t42 -14.5t39 -4.5z" />
    <glyph glyph-name="dieresis" unicode="&#xa8;" horiz-adv-x="361" 
d="M37 660q0 23 16 39t39 16t39 -16t16 -39q0 -22 -16 -38t-39 -16t-39 16t-16 38zM269 715q23 0 39 -16t16 -39q0 -22 -16 -38t-39 -16t-38.5 16t-15.5 38q0 23 15.5 39t38.5 16z" />
    <glyph glyph-name="copyright" unicode="&#xa9;" horiz-adv-x="347" 
d="M49 626q0 26 10 49t27 40t40 27t49 10t49 -10t40 -27t27 -40t10 -49t-10 -49t-27 -40.5t-40 -27.5t-49 -10t-49 10t-40 27.5t-27 40.5t-10 49zM175 520q22 0 41 8.5t33.5 23t23 33.5t8.5 41t-8.5 41t-23 33.5t-33.5 23t-41 8.5t-41 -8.5t-33.5 -23t-23 -33.5t-8.5 -41
t8.5 -41t23 -33.5t33.5 -23t41 -8.5zM101 625q0 32 20.5 54t52.5 22q26 0 45.5 -15.5t25.5 -40.5h-22q-5 17 -18.5 27t-30.5 10q-23 0 -37.5 -16.5t-14.5 -40.5q0 -25 14.5 -41.5t37.5 -16.5q17 0 30.5 10t18.5 27h22q-6 -25 -25.5 -40.5t-45.5 -15.5q-32 0 -52.5 22
t-20.5 55z" />
    <glyph glyph-name="ordfeminine" unicode="&#xaa;" horiz-adv-x="348" 
d="M63 589q0 37 25.5 61.5t73.5 24.5h83v42h-142v45h154q17 0 27.5 -10.5t10.5 -27.5v-216h-50v44q-13 -26 -28.5 -39t-47.5 -13q-47 0 -76.5 25t-29.5 64zM169 546q74 0 76 86h-78q-24 0 -38.5 -11t-14.5 -31q-1 -18 15.5 -31t39.5 -13z" />
    <glyph glyph-name="guillemotleft" unicode="&#xab;" horiz-adv-x="537" 
d="M72 399l47 58l195 -172v-6l-193 -172l-49 59l136 116zM256 399l47 58l195 -172v-6l-193 -172l-49 59l136 116z" />
    <glyph glyph-name="logicalnot" unicode="&#xac;" horiz-adv-x="579" 
d="M47 255h444v-184h-79v105h-365v79z" />
    <glyph glyph-name="registered" unicode="&#xae;" horiz-adv-x="333" 
d="M49 626q0 26 10 49t27 40t40 27t49 10t49 -10t40 -27t27 -40t10 -49t-10 -49t-27 -40.5t-40 -27.5t-49 -10t-49 10t-40 27.5t-27 40.5t-10 49zM69 626q0 -22 8.5 -41t23 -33.5t33.5 -23t41 -8.5t41 8.5t33.5 23t23 33.5t8.5 41t-8.5 41t-23 33.5t-33.5 23t-41 8.5
t-41 -8.5t-33.5 -23t-23 -33.5t-8.5 -41zM147 556h-21v141h63l-1 -18l1 18q18 0 29 -12.5t11 -29.5q0 -15 -9.5 -27.5t-23.5 -16.5l38 -55h-24l-38 53h-25v-53zM188 679h-41v-52h38q10 0 17 8.5t7 19.5q0 9 -6 16.5t-15 7.5z" />
    <glyph glyph-name="macron" unicode="&#xaf;" horiz-adv-x="507" 
d="M4 826h500v-71h-500v71z" />
    <glyph glyph-name="degree" unicode="&#xb0;" horiz-adv-x="308" 
d="M49 649q0 21 8 39.5t22.5 33t33.5 22.5t40 8t39.5 -8t33 -22.5t22.5 -33t8 -39.5t-8 -39.5t-22.5 -33t-33 -22.5t-39.5 -8t-40 8t-33.5 22.5t-22.5 33t-8 39.5zM153 583q27 0 46.5 19.5t19.5 46.5t-19.5 46.5t-46.5 19.5t-46.5 -19.5t-19.5 -46.5t19.5 -46.5t46.5 -19.5z
" />
    <glyph glyph-name="plusminus" unicode="&#xb1;" horiz-adv-x="471" 
d="M61 368h120v122h95v-122h120v-89h-120v-123h-95v123h-120v89zM61 89h335v-89h-335v89z" />
    <glyph glyph-name="twosuperior" unicode="&#xb2;" horiz-adv-x="333" 
d="M78 537q0 23 6.5 37.5t17 24t24.5 16t30 12.5q11 4 24 8.5t24 11t18.5 16t7.5 22.5q0 23 -16 33.5t-37 10.5q-31 0 -45.5 -13t-14.5 -33h-37q0 38 29.5 58.5t71.5 20.5q14 0 29 -5t28 -14.5t21 -23t8 -31.5q0 -24 -11 -39.5t-26.5 -25.5t-32.5 -16t-30 -11
q-28 -10 -40.5 -21t-12.5 -42h150v-33h-186v37z" />
    <glyph glyph-name="threesuperior" unicode="&#xb3;" horiz-adv-x="349" 
d="M87 565h35q5 -16 20.5 -24.5t32.5 -8.5q19 0 36 11t17 32t-17 31t-37 10h-16v30h16q17 0 31.5 10.5t14.5 30.5q0 22 -13 32.5t-32 10.5t-32 -10t-14 -30h-36q2 35 27 53.5t55 18.5t55.5 -20t26.5 -57q0 -17 -7.5 -31t-18.5 -23q12 -10 22 -23.5t10 -32.5t-7.5 -33
t-20 -23.5t-28 -14t-32.5 -4.5q-31 0 -57 16.5t-31 48.5z" />
    <glyph glyph-name="acute" unicode="&#xb4;" horiz-adv-x="317" 
d="M169 594h-90l74 106h102z" />
    <glyph glyph-name="uni00B5" unicode="&#xb5;" horiz-adv-x="622" 
d="M168 500v-288q0 -61 32 -97t97 -36q75 0 113.5 35.5t39.5 113.5v272h100v-500h-100v58q-24 -39 -63.5 -56.5t-96.5 -17.5q-36 0 -66.5 7.5t-55.5 21.5v-263h-100v750h100z" />
    <glyph glyph-name="paragraph" unicode="&#xb6;" horiz-adv-x="660" 
d="M263 266q-48 0 -88 19t-69.5 50.5t-46 73t-16.5 85.5q0 41 14.5 78t40.5 65.5t62.5 45.5t81.5 17l5 -89l-4 89h303v-700h-70v611h-29v-611h-87v266h-97zM142 492q0 -25 9.5 -50t26 -44t38.5 -31t47 -12h97v256h-113q-24 0 -43 -10t-33 -27t-21.5 -38t-7.5 -44z" />
    <glyph glyph-name="periodcentered" unicode="&#xb7;" horiz-adv-x="285" 
d="M59 327q0 27 19.5 46.5t46.5 19.5t46.5 -19.5t19.5 -46.5t-19.5 -46.5t-46.5 -19.5t-46.5 19.5t-19.5 46.5z" />
    <glyph glyph-name="cedilla" unicode="&#xb8;" horiz-adv-x="241" 
d="M85 -232v60q20 -2 36 0q13 2 24 10t11 26q0 29 -17.5 35t-51.5 6v95h62l1 -50q21 -4 38 -14q14 -8 25.5 -23.5t11.5 -41.5q0 -33 -11.5 -53t-31 -31.5t-45 -15t-52.5 -3.5z" />
    <glyph glyph-name="onesuperior" unicode="&#xb9;" horiz-adv-x="347" 
d="M111 712l54 48h52v-260h-46v216l-34 -30z" />
    <glyph glyph-name="ordmasculine" unicode="&#xba;" horiz-adv-x="365" 
d="M185 762q27 0 50.5 -10t40.5 -27t26.5 -41t9.5 -52t-9.5 -52t-26.5 -42t-40.5 -28t-50.5 -10t-50.5 10t-40.5 28t-26.5 42t-9.5 52t9.5 52t26.5 41t40.5 27t50.5 10zM185 544q34 0 56 25t22 63q0 37 -22 61.5t-56 24.5q-33 0 -55 -24.5t-22 -61.5q0 -38 22 -63t55 -25z
" />
    <glyph glyph-name="guillemotright" unicode="&#xbb;" horiz-adv-x="538" 
d="M499 399l-137 -117l137 -116l-49 -59l-193 172v6l195 172zM315 399l-137 -117l137 -116l-49 -59l-194 172v6l196 172z" />
    <glyph glyph-name="onequarter" unicode="&#xbc;" horiz-adv-x="727" 
d="M372 147l214 285h61v-285h47v-55h-47v-92h-61v92h-214v55zM137 0l318 700h73l-315 -700h-76zM-18 620l90 80h72v-432h-62v358l-56 -49zM444 147h142v189z" />
    <glyph glyph-name="onehalf" unicode="&#xbd;" horiz-adv-x="740" 
d="M444 62q0 34 9.5 58t24 40.5t33 27t36.5 18.5q23 10 44.5 19.5t39 21t28.5 27t12 38.5q-1 39 -23 56.5t-57 17.5q-47 0 -64.5 -22.5t-17.5 -60.5h-62q0 68 40.5 103t100.5 35q26 0 52 -8.5t46.5 -25t33.5 -41t13 -56.5q0 -37 -17 -63t-42.5 -44t-55 -30.5t-55.5 -23.5
q-29 -12 -43 -32t-14 -62h222v-55h-284v62zM435 700h73l-315 -700h-76zM19 577l-44 43l91 80h71v-432h-62v358z" />
    <glyph glyph-name="threequarters" unicode="&#xbe;" horiz-adv-x="873" 
d="M535 149l217 289h62v-289h48v-55h-48v-94h-63v94h-216v55zM143 396v-1q0 -37 24 -62.5t60 -25.5q18 0 34 7t28.5 19t19.5 28t7 34q0 37 -26.5 62t-62.5 25h-10v55l76 106h-194v56h268l-1 -56l-81 -114q41 -16 65.5 -51.5t24.5 -81.5q0 -31 -11.5 -57t-31 -45.5
t-46.5 -30.5t-59 -11t-59.5 11t-47.5 30.5t-31 46t-11 56.5h65zM597 700h73l-315 -700h-76zM608 149h143v192z" />
    <glyph glyph-name="questiondown" unicode="&#xbf;" horiz-adv-x="511" 
d="M28 -25q0 36 9.5 61.5t23.5 44t32 30.5t34 21q59 31 80 65t21 70q38 0 60.5 -0.5t33.5 -0.5h18q0 -58 -33.5 -110.5t-96.5 -79.5q-46 -20 -64 -49t-18 -64q0 -56 37.5 -90t100.5 -34q64 0 99 35t35 90h91q0 -51 -19 -91t-50.5 -67.5t-72 -42t-82.5 -14.5q-44 0 -87 15.5
t-76.5 44.5t-54.5 71t-21 95zM284 348q-27 0 -46.5 19.5t-19.5 46.5t19.5 46.5t46.5 19.5t46.5 -19.5t19.5 -46.5t-19.5 -46.5t-46.5 -19.5z" />
    <glyph glyph-name="Agrave" unicode="&#xc0;" horiz-adv-x="676" 
d="M26 0l255 700h111l260 -700h-100l-82 224h-265l-80 -224h-99zM237 313h201l-102 277zM250 851h102l74 -106h-90z" />
    <glyph glyph-name="Aacute" unicode="&#xc1;" horiz-adv-x="676" 
d="M26 0l255 700h111l260 -700h-100l-82 224h-265l-80 -224h-99zM237 313h201l-102 277zM340 740h-90l74 106h102z" />
    <glyph glyph-name="Acircumflex" unicode="&#xc2;" horiz-adv-x="676" 
d="M26 0l255 700h111l260 -700h-100l-82 224h-265l-80 -224h-99zM237 313h201l-102 277zM210 740l74 106h107l74 -106h-81l-46 58l-47 -58h-81z" />
    <glyph glyph-name="Atilde" unicode="&#xc3;" horiz-adv-x="676" 
d="M26 0l255 700h111l260 -700h-100l-82 224h-265l-80 -224h-99zM237 313h201l-102 277zM183 749v65q13 -4 28 -6.5t35 -2.5q31 0 53.5 6t43 13t41 13t47.5 6q19 0 33.5 -3t28.5 -8v-64q-14 5 -28.5 8t-33.5 3q-27 0 -47.5 -6t-41 -13.5t-43 -13.5t-53.5 -6q-20 0 -35 2.5
t-28 6.5z" />
    <glyph glyph-name="Adieresis" unicode="&#xc4;" horiz-adv-x="676" 
d="M26 0l255 700h111l260 -700h-100l-82 224h-265l-80 -224h-99zM237 313h201l-102 277zM195 794q0 23 16 39t39 16t39 -16t16 -39q0 -22 -16 -38t-39 -16t-39 16t-16 38zM427 849q23 0 39 -16t16 -39q0 -22 -16 -38t-39 -16t-38.5 16t-15.5 38q0 23 15.5 39t38.5 16z" />
    <glyph glyph-name="Aring" unicode="&#xc5;" horiz-adv-x="676" 
d="M26 0l255 700h111l260 -700h-100l-82 224h-265l-80 -224h-99zM237 313h201l-102 277zM234 822q0 21 8 39.5t22.5 33t33.5 22.5t40 8t39.5 -8t33 -22.5t22.5 -33t8 -39.5t-8 -39.5t-22.5 -33t-33 -22.5t-39.5 -8t-40 8t-33.5 22.5t-22.5 33t-8 39.5zM338 767q23 0 39 16
t16 39t-16 39t-39 16t-39.5 -16t-16.5 -39t16.5 -39t39.5 -16z" />
    <glyph glyph-name="AE" unicode="&#xc6;" horiz-adv-x="899" 
d="M40 0l306 700h504v-89h-365v-204h282v-92h-282v-226h367v-89h-460v224h-155l-97 -224h-100zM275 313h117v273z" />
    <glyph glyph-name="Ccedilla" unicode="&#xc7;" horiz-adv-x="731" 
d="M22 350q0 78 26.5 145t73 116t111 76.5t139.5 27.5q63 0 118.5 -19.5t99.5 -54.5t75.5 -84t46.5 -108h-104q-13 39 -36 71.5t-54 56t-68 36t-78 12.5q-54 0 -99.5 -21t-79 -58t-52.5 -87.5t-19 -109.5t19 -109.5t52 -87t79 -57.5t100 -21q41 0 78 12.5t68 36t54 55.5
t36 71h103q-15 -58 -46 -107t-75.5 -83.5t-99.5 -54t-118 -19.5q-75 0 -139.5 27.5t-111 76.5t-73 116t-26.5 145zM339 -232v60q20 -2 36 0q13 2 24 10t11 26q0 29 -17.5 35t-51.5 6v95h62l1 -50q21 -4 38 -14q14 -8 25.5 -23.5t11.5 -41.5q0 -33 -11.5 -53t-31 -31.5
t-45 -15t-52.5 -3.5z" />
    <glyph glyph-name="Egrave" unicode="&#xc8;" horiz-adv-x="566" 
d="M43 700h493v-89h-393v-204h303v-92h-303v-226h395v-89h-495v700zM195 851h102l74 -106h-90z" />
    <glyph glyph-name="Eacute" unicode="&#xc9;" horiz-adv-x="566" 
d="M43 700h493v-89h-393v-204h303v-92h-303v-226h395v-89h-495v700zM285 740h-90l74 106h102z" />
    <glyph glyph-name="Ecircumflex" unicode="&#xca;" horiz-adv-x="566" 
d="M43 700h493v-89h-393v-204h303v-92h-303v-226h395v-89h-495v700zM155 740l74 106h107l74 -106h-81l-46 58l-47 -58h-81z" />
    <glyph glyph-name="Edieresis" unicode="&#xcb;" horiz-adv-x="566" 
d="M43 700h493v-89h-393v-204h303v-92h-303v-226h395v-89h-495v700zM140 794q0 23 16 39t39 16t39 -16t16 -39q0 -22 -16 -38t-39 -16t-39 16t-16 38zM372 849q23 0 39 -16t16 -39q0 -22 -16 -38t-39 -16t-38.5 16t-15.5 38q0 23 15.5 39t38.5 16z" />
    <glyph glyph-name="Igrave" unicode="&#xcc;" horiz-adv-x="228" 
d="M64 700h100v-700h-100v700zM26 851h102l74 -106h-90z" />
    <glyph glyph-name="Iacute" unicode="&#xcd;" horiz-adv-x="228" 
d="M64 700h100v-700h-100v700zM116 740h-90l74 106h102z" />
    <glyph glyph-name="Icircumflex" unicode="&#xce;" horiz-adv-x="228" 
d="M64 700h100v-700h-100v700zM-14 740l74 106h107l74 -106h-81l-46 58l-47 -58h-81z" />
    <glyph glyph-name="Idieresis" unicode="&#xcf;" horiz-adv-x="228" 
d="M64 700h100v-700h-100v700zM-29 794q0 23 16 39t39 16t39 -16t16 -39q0 -22 -16 -38t-39 -16t-39 16t-16 38zM203 849q23 0 39 -16t16 -39q0 -22 -16 -38t-39 -16t-38.5 16t-15.5 38q0 23 15.5 39t38.5 16z" />
    <glyph glyph-name="Eth" unicode="&#xd0;" horiz-adv-x="635" 
d="M51 700h252q72 0 131.5 -27t102 -73.5t65.5 -108.5t23 -131q0 -59 -18 -122.5t-55.5 -116.5t-96 -87t-139.5 -34h-265v700zM151 89h140q60 0 104 21.5t73 58.5t43 88t14 109q0 49 -18 93.5t-50.5 78t-78 53.5t-101.5 20h-126v-522zM7 418h228v-89h-228v89z" />
    <glyph glyph-name="Ntilde" unicode="&#xd1;" horiz-adv-x="664" 
d="M171 700l353 -565v565h100v-700h-120l-360 576v-576h-100v700h127zM183 790v65q13 -4 28 -6.5t35 -2.5q31 0 53.5 6t43 13t41 13t47.5 6q19 0 33.5 -3t28.5 -8v-64q-14 5 -28.5 8t-33.5 3q-27 0 -47.5 -6t-41 -13.5t-43 -13.5t-53.5 -6q-20 0 -35 2.5t-28 6.5z" />
    <glyph glyph-name="Ograve" unicode="&#xd2;" horiz-adv-x="741" 
d="M18 350q0 78 27 145t74 116t111.5 76.5t140.5 27.5q75 0 139.5 -27.5t112 -76.5t74 -116t26.5 -145t-26.5 -145t-73.5 -116t-111.5 -76.5t-140.5 -27.5t-140.5 27.5t-111.5 76.5t-74 116t-27 145zM371 74q54 0 100.5 21t80 58t53 87.5t19.5 109.5t-19 109.5t-53 87
t-80.5 57.5t-100.5 21t-100.5 -21t-80 -58t-53 -87.5t-19.5 -109.5t19.5 -109.5t53 -87t80 -57.5t100.5 -21zM283 851h102l74 -106h-90z" />
    <glyph glyph-name="Oacute" unicode="&#xd3;" horiz-adv-x="741" 
d="M18 350q0 78 27 145t74 116t111.5 76.5t140.5 27.5q75 0 139.5 -27.5t112 -76.5t74 -116t26.5 -145t-26.5 -145t-73.5 -116t-111.5 -76.5t-140.5 -27.5t-140.5 27.5t-111.5 76.5t-74 116t-27 145zM371 74q54 0 100.5 21t80 58t53 87.5t19.5 109.5t-19 109.5t-53 87
t-80.5 57.5t-100.5 21t-100.5 -21t-80 -58t-53 -87.5t-19.5 -109.5t19.5 -109.5t53 -87t80 -57.5t100.5 -21zM373 740h-90l74 106h102z" />
    <glyph glyph-name="Ocircumflex" unicode="&#xd4;" horiz-adv-x="741" 
d="M18 350q0 78 27 145t74 116t111.5 76.5t140.5 27.5q75 0 139.5 -27.5t112 -76.5t74 -116t26.5 -145t-26.5 -145t-73.5 -116t-111.5 -76.5t-140.5 -27.5t-140.5 27.5t-111.5 76.5t-74 116t-27 145zM371 74q54 0 100.5 21t80 58t53 87.5t19.5 109.5t-19 109.5t-53 87
t-80.5 57.5t-100.5 21t-100.5 -21t-80 -58t-53 -87.5t-19.5 -109.5t19.5 -109.5t53 -87t80 -57.5t100.5 -21zM243 740l74 106h107l74 -106h-81l-46 58l-47 -58h-81z" />
    <glyph glyph-name="Otilde" unicode="&#xd5;" horiz-adv-x="741" 
d="M18 350q0 78 27 145t74 116t111.5 76.5t140.5 27.5q75 0 139.5 -27.5t112 -76.5t74 -116t26.5 -145t-26.5 -145t-73.5 -116t-111.5 -76.5t-140.5 -27.5t-140.5 27.5t-111.5 76.5t-74 116t-27 145zM371 74q54 0 100.5 21t80 58t53 87.5t19.5 109.5t-19 109.5t-53 87
t-80.5 57.5t-100.5 21t-100.5 -21t-80 -58t-53 -87.5t-19.5 -109.5t19.5 -109.5t53 -87t80 -57.5t100.5 -21zM216 749v65q13 -4 28 -6.5t35 -2.5q31 0 53.5 6t43 13t41 13t47.5 6q19 0 33.5 -3t28.5 -8v-64q-14 5 -28.5 8t-33.5 3q-27 0 -47.5 -6t-41 -13.5t-43 -13.5
t-53.5 -6q-20 0 -35 2.5t-28 6.5z" />
    <glyph glyph-name="Odieresis" unicode="&#xd6;" horiz-adv-x="741" 
d="M18 350q0 78 27 145t74 116t111.5 76.5t140.5 27.5q75 0 139.5 -27.5t112 -76.5t74 -116t26.5 -145t-26.5 -145t-73.5 -116t-111.5 -76.5t-140.5 -27.5t-140.5 27.5t-111.5 76.5t-74 116t-27 145zM371 74q54 0 100.5 21t80 58t53 87.5t19.5 109.5t-19 109.5t-53 87
t-80.5 57.5t-100.5 21t-100.5 -21t-80 -58t-53 -87.5t-19.5 -109.5t19.5 -109.5t53 -87t80 -57.5t100.5 -21zM227 794q0 23 16 39t39 16t39 -16t16 -39q0 -22 -16 -38t-39 -16t-39 16t-16 38zM459 849q23 0 39 -16t16 -39q0 -22 -16 -38t-39 -16t-38.5 16t-15.5 38
q0 23 15.5 39t38.5 16z" />
    <glyph glyph-name="multiply" unicode="&#xd7;" horiz-adv-x="592" 
d="M136 238l87 87l-84 85l62 63l85 -85l87 87l67 -67l-87 -87l85 -85l-63 -62l-85 84l-87 -86z" />
    <glyph glyph-name="Oslash" unicode="&#xd8;" horiz-adv-x="741" 
d="M209 23l-59 -91l-81 58l59 90q-52 50 -81 119t-29 151q0 78 26.5 145t74 116t112 76.5t139.5 27.5q82 0 149 -32l71 109l79 -62l-66 -101q56 -50 88 -121t32 -158q0 -78 -26.5 -145t-74 -116t-112 -76.5t-139.5 -27.5q-89 0 -162 38zM371 74q54 0 100.5 21t80 58t53 87.5
t19.5 109.5q0 60 -19.5 110.5t-54.5 87.5l-291 -448q50 -26 112 -26zM469 605q-46 20 -98 20q-54 0 -100.5 -21t-80 -58t-53 -87.5t-19.5 -109.5q0 -55 16.5 -102.5t46.5 -83.5z" />
    <glyph glyph-name="Ugrave" unicode="&#xd9;" horiz-adv-x="664" 
d="M142 700v-421q0 -49 14.5 -87t40 -64.5t60.5 -40t76 -13.5t75.5 13.5t60 40t40 64.5t14.5 87v421h100v-421q0 -64 -22 -118t-61 -93t-92 -61t-115 -22t-115.5 22t-92.5 61t-61 93t-22 118v421h100zM244 851h102l74 -106h-90z" />
    <glyph glyph-name="Uacute" unicode="&#xda;" horiz-adv-x="664" 
d="M142 700v-421q0 -49 14.5 -87t40 -64.5t60.5 -40t76 -13.5t75.5 13.5t60 40t40 64.5t14.5 87v421h100v-421q0 -64 -22 -118t-61 -93t-92 -61t-115 -22t-115.5 22t-92.5 61t-61 93t-22 118v421h100zM334 740h-90l74 106h102z" />
    <glyph glyph-name="Ucircumflex" unicode="&#xdb;" horiz-adv-x="664" 
d="M142 700v-421q0 -49 14.5 -87t40 -64.5t60.5 -40t76 -13.5t75.5 13.5t60 40t40 64.5t14.5 87v421h100v-421q0 -64 -22 -118t-61 -93t-92 -61t-115 -22t-115.5 22t-92.5 61t-61 93t-22 118v421h100zM204 740l74 106h107l74 -106h-81l-46 58l-47 -58h-81z" />
    <glyph glyph-name="Udieresis" unicode="&#xdc;" horiz-adv-x="664" 
d="M142 700v-421q0 -49 14.5 -87t40 -64.5t60.5 -40t76 -13.5t75.5 13.5t60 40t40 64.5t14.5 87v421h100v-421q0 -64 -22 -118t-61 -93t-92 -61t-115 -22t-115.5 22t-92.5 61t-61 93t-22 118v421h100zM189 794q0 23 16 39t39 16t39 -16t16 -39q0 -22 -16 -38t-39 -16t-39 16
t-16 38zM421 849q23 0 39 -16t16 -39q0 -22 -16 -38t-39 -16t-38.5 16t-15.5 38q0 23 15.5 39t38.5 16z" />
    <glyph glyph-name="Yacute" unicode="&#xdd;" horiz-adv-x="674" 
d="M31 700h117l193 -300l192 300h111l-253 -388v-312h-100v312zM339 740h-90l74 106h102z" />
    <glyph glyph-name="Thorn" unicode="&#xde;" horiz-adv-x="611" 
d="M43 603h100v-108h199q42 0 77 -16t59.5 -42.5t38.5 -61.5t14 -74q0 -36 -12 -70t-35.5 -60.5t-58.5 -42.5t-80 -16h-202v-112h-100v603zM349 201q23 0 40.5 9t29 23.5t17 32.5t5.5 36q0 43 -28 73.5t-73 30.5h-197v-205h206z" />
    <glyph glyph-name="germandbls" unicode="&#xdf;" horiz-adv-x="576" 
d="M140 -92h-100v792h298q42 0 77 -16t59.5 -42.5t38.5 -61.5t14 -74t-14.5 -76t-42.5 -64q36 -27 56 -67.5t20 -87.5q0 -40 -15 -78.5t-42.5 -67.5t-65 -47t-82.5 -18h-143v89h143v-89v89q23 0 42.5 10.5t33.5 27t21.5 38.5t7.5 44q0 45 -28.5 76.5t-76.5 31.5h-63v89h68
q23 0 40 9t28.5 23.5t17 32.5t5.5 36q0 43 -28 73.5t-73 30.5h-196v-703z" />
    <glyph glyph-name="agrave" unicode="&#xe0;" horiz-adv-x="520" 
d="M218 328h162v83h-278v89h303q34 0 54.5 -20.5t20.5 -54.5v-425h-100v87q-13 -26 -26 -45.5t-29.5 -32.5t-39 -19t-54.5 -6q-46 0 -84 13t-66 36t-43.5 55t-15.5 71q0 42 16 74t43 53t62.5 31.5t74.5 10.5zM232 74q72 0 109.5 43t38.5 128h-153q-48 0 -76.5 -22.5
t-28.5 -60.5q0 -18 8 -34t23 -28t35.5 -19t43.5 -7zM190 700h102l74 -106h-90z" />
    <glyph glyph-name="aacute" unicode="&#xe1;" horiz-adv-x="520" 
d="M218 328h162v83h-278v89h303q34 0 54.5 -20.5t20.5 -54.5v-425h-100v87q-13 -26 -26 -45.5t-29.5 -32.5t-39 -19t-54.5 -6q-46 0 -84 13t-66 36t-43.5 55t-15.5 71q0 42 16 74t43 53t62.5 31.5t74.5 10.5zM232 74q72 0 109.5 43t38.5 128h-153q-48 0 -76.5 -22.5
t-28.5 -60.5q0 -18 8 -34t23 -28t35.5 -19t43.5 -7zM280 594h-90l74 106h102z" />
    <glyph glyph-name="acircumflex" unicode="&#xe2;" horiz-adv-x="520" 
d="M218 328h162v83h-278v89h303q34 0 54.5 -20.5t20.5 -54.5v-425h-100v87q-13 -26 -26 -45.5t-29.5 -32.5t-39 -19t-54.5 -6q-46 0 -84 13t-66 36t-43.5 55t-15.5 71q0 42 16 74t43 53t62.5 31.5t74.5 10.5zM232 74q72 0 109.5 43t38.5 128h-153q-48 0 -76.5 -22.5
t-28.5 -60.5q0 -18 8 -34t23 -28t35.5 -19t43.5 -7zM159 627l74 106h107l74 -106h-81l-46 58l-47 -58h-81z" />
    <glyph glyph-name="atilde" unicode="&#xe3;" horiz-adv-x="520" 
d="M218 328h162v83h-278v89h303q34 0 54.5 -20.5t20.5 -54.5v-425h-100v87q-13 -26 -26 -45.5t-29.5 -32.5t-39 -19t-54.5 -6q-46 0 -84 13t-66 36t-43.5 55t-15.5 71q0 42 16 74t43 53t62.5 31.5t74.5 10.5zM232 74q72 0 109.5 43t38.5 128h-153q-48 0 -76.5 -22.5
t-28.5 -60.5q0 -18 8 -34t23 -28t35.5 -19t43.5 -7zM111 590v65q13 -4 28 -6.5t35 -2.5q31 0 53.5 6t43 13t41 13t47.5 6q19 0 33.5 -3t28.5 -8v-64q-14 5 -28.5 8t-33.5 3q-27 0 -47.5 -6t-41 -13.5t-43 -13.5t-53.5 -6q-20 0 -35 2.5t-28 6.5z" />
    <glyph glyph-name="adieresis" unicode="&#xe4;" horiz-adv-x="520" 
d="M218 328h162v83h-278v89h303q34 0 54.5 -20.5t20.5 -54.5v-425h-100v87q-13 -26 -26 -45.5t-29.5 -32.5t-39 -19t-54.5 -6q-46 0 -84 13t-66 36t-43.5 55t-15.5 71q0 42 16 74t43 53t62.5 31.5t74.5 10.5zM232 74q72 0 109.5 43t38.5 128h-153q-48 0 -76.5 -22.5
t-28.5 -60.5q0 -18 8 -34t23 -28t35.5 -19t43.5 -7zM153 660q0 23 16 39t39 16t39 -16t16 -39q0 -22 -16 -38t-39 -16t-39 16t-16 38zM385 715q23 0 39 -16t16 -39q0 -22 -16 -38t-39 -16t-38.5 16t-15.5 38q0 23 15.5 39t38.5 16z" />
    <glyph glyph-name="aring" unicode="&#xe5;" horiz-adv-x="520" 
d="M218 328h162v83h-278v89h303q34 0 54.5 -20.5t20.5 -54.5v-425h-100v87q-13 -26 -26 -45.5t-29.5 -32.5t-39 -19t-54.5 -6q-46 0 -84 13t-66 36t-43.5 55t-15.5 71q0 42 16 74t43 53t62.5 31.5t74.5 10.5zM232 74q72 0 109.5 43t38.5 128h-153q-48 0 -76.5 -22.5
t-28.5 -60.5q0 -18 8 -34t23 -28t35.5 -19t43.5 -7zM184 649q0 21 8 39.5t22.5 33t33.5 22.5t40 8t39.5 -8t33 -22.5t22.5 -33t8 -39.5t-8 -39.5t-22.5 -33t-33 -22.5t-39.5 -8t-40 8t-33.5 22.5t-22.5 33t-8 39.5zM288 594q23 0 39 16t16 39t-16 39t-39 16t-39.5 -16
t-16.5 -39t16.5 -39t39.5 -16z" />
    <glyph glyph-name="ae" unicode="&#xe6;" horiz-adv-x="891" 
d="M204 328h162v83h-278v89h303q34 0 54.5 -20.5t20.5 -54.5v-425h-100v87q-13 -26 -26 -45.5t-29.5 -32.5t-39 -19t-54.5 -6q-46 0 -84 13t-66 36t-43.5 55t-15.5 71q0 42 16 74t43 53t62.5 31.5t74.5 10.5zM218 74q72 0 109.5 43t38.5 128h-153q-48 0 -76.5 -22.5
t-28.5 -60.5q0 -18 8 -34t23 -28t35.5 -19t43.5 -7zM372 251q0 57 19.5 105.5t54 83.5t81.5 55t102 20t102 -20t81.5 -55t54 -83.5t19.5 -105.5q0 -11 -0.5 -20.5t-1.5 -20.5h-408q12 -60 53.5 -98t99.5 -38q46 0 81.5 24t55.5 64h107q-13 -39 -36.5 -72t-55 -56t-70 -36
t-82.5 -13q-55 0 -102 20t-81.5 56t-54 84.5t-19.5 105.5zM782 297q-12 57 -52.5 93t-99.5 36t-99.5 -36t-53.5 -93h305z" />
    <glyph glyph-name="ccedilla" unicode="&#xe7;" horiz-adv-x="519" 
d="M19 242q0 56 18.5 103t51.5 81.5t78.5 54t98.5 19.5q44 0 83 -14t70 -38.5t53.5 -59t32.5 -76.5h-107q-17 42 -52.5 66.5t-80.5 24.5q-31 0 -58 -12t-46.5 -34t-30.5 -51t-11 -64q0 -34 11 -63.5t30.5 -51.5t46 -34t57.5 -12q46 0 81.5 24.5t52.5 66.5h107
q-10 -42 -32.5 -76t-53.5 -59t-70 -38.5t-83 -13.5q-53 0 -98.5 19.5t-78.5 54t-51.5 81.5t-18.5 102zM241 -232v60q20 -2 36 0q13 2 24 10t11 26q0 29 -17.5 35t-51.5 6v95h62l1 -50q21 -4 38 -14q14 -8 25.5 -23.5t11.5 -41.5q0 -33 -11.5 -53t-31 -31.5t-45 -15
t-52.5 -3.5z" />
    <glyph glyph-name="egrave" unicode="&#xe8;" 
d="M15 251q0 57 19.5 105.5t54 83.5t81.5 55t102 20t102 -20t81.5 -55t54 -83.5t19.5 -105.5q0 -11 -0.5 -20.5t-1.5 -20.5h-408q12 -60 53.5 -98t99.5 -38q46 0 81.5 24t55.5 64h107q-13 -39 -36.5 -72t-55 -56t-70 -36t-82.5 -13q-55 0 -102 20t-81.5 56t-54 84.5
t-19.5 105.5zM425 297q-12 57 -52.5 93t-99.5 36t-99.5 -36t-53.5 -93h305zM202 700h102l74 -106h-90z" />
    <glyph glyph-name="eacute" unicode="&#xe9;" 
d="M15 251q0 57 19.5 105.5t54 83.5t81.5 55t102 20t102 -20t81.5 -55t54 -83.5t19.5 -105.5q0 -11 -0.5 -20.5t-1.5 -20.5h-408q12 -60 53.5 -98t99.5 -38q46 0 81.5 24t55.5 64h107q-13 -39 -36.5 -72t-55 -56t-70 -36t-82.5 -13q-55 0 -102 20t-81.5 56t-54 84.5
t-19.5 105.5zM425 297q-12 57 -52.5 93t-99.5 36t-99.5 -36t-53.5 -93h305zM292 594h-90l74 106h102z" />
    <glyph glyph-name="ecircumflex" unicode="&#xea;" 
d="M15 251q0 57 19.5 105.5t54 83.5t81.5 55t102 20t102 -20t81.5 -55t54 -83.5t19.5 -105.5q0 -11 -0.5 -20.5t-1.5 -20.5h-408q12 -60 53.5 -98t99.5 -38q46 0 81.5 24t55.5 64h107q-13 -39 -36.5 -72t-55 -56t-70 -36t-82.5 -13q-55 0 -102 20t-81.5 56t-54 84.5
t-19.5 105.5zM425 297q-12 57 -52.5 93t-99.5 36t-99.5 -36t-53.5 -93h305zM171 627l74 106h107l74 -106h-81l-46 58l-47 -58h-81z" />
    <glyph glyph-name="edieresis" unicode="&#xeb;" 
d="M15 251q0 57 19.5 105.5t54 83.5t81.5 55t102 20t102 -20t81.5 -55t54 -83.5t19.5 -105.5q0 -11 -0.5 -20.5t-1.5 -20.5h-408q12 -60 53.5 -98t99.5 -38q46 0 81.5 24t55.5 64h107q-13 -39 -36.5 -72t-55 -56t-70 -36t-82.5 -13q-55 0 -102 20t-81.5 56t-54 84.5
t-19.5 105.5zM425 297q-12 57 -52.5 93t-99.5 36t-99.5 -36t-53.5 -93h305zM128 660q0 23 16 39t39 16t39 -16t16 -39q0 -22 -16 -38t-39 -16t-39 16t-16 38zM360 715q23 0 39 -16t16 -39q0 -22 -16 -38t-39 -16t-38.5 16t-15.5 38q0 23 15.5 39t38.5 16z" />
    <glyph glyph-name="igrave" unicode="&#xec;" horiz-adv-x="225" 
d="M71 500h100v-500h-100v500zM42 700h102l74 -106h-90z" />
    <glyph glyph-name="iacute" unicode="&#xed;" horiz-adv-x="225" 
d="M71 500h100v-500h-100v500zM132 594h-90l74 106h102z" />
    <glyph glyph-name="icircumflex" unicode="&#xee;" horiz-adv-x="218" 
d="M68 500h100v-500h-100v500zM8 627l74 106h107l74 -106h-81l-46 58l-47 -58h-81z" />
    <glyph glyph-name="idieresis" unicode="&#xef;" horiz-adv-x="198" 
d="M58 500h100v-500h-100v500zM-8 660q0 23 16 39t39 16t39 -16t16 -39q0 -22 -16 -38t-39 -16t-39 16t-16 38zM224 715q23 0 39 -16t16 -39q0 -22 -16 -38t-39 -16t-38.5 16t-15.5 38q0 23 15.5 39t38.5 16z" />
    <glyph glyph-name="eth" unicode="&#xf0;" horiz-adv-x="606" 
d="M21 227q0 52 17.5 96t48.5 76.5t73.5 51t92.5 18.5q19 0 37 -3l-33 60l-76 -44l-41 71l78 46l-33 60l83 41l29 -54l80 48l45 -73l-85 -49l117 -216q16 -28 24.5 -60t8.5 -67q0 -52 -17.5 -96.5t-48.5 -77.5t-74 -51.5t-93 -18.5t-92.5 18.5t-74 51t-49 76.5t-17.5 96z
M111 227q0 -34 11 -63.5t30 -51t45.5 -34t56.5 -12.5q31 0 57 12.5t45 34t30 51t11 63.5t-11 63t-30 50.5t-45.5 33.5t-56.5 12t-56.5 -12t-45.5 -33.5t-30 -50.5t-11 -63z" />
    <glyph glyph-name="ntilde" unicode="&#xf1;" horiz-adv-x="567" 
d="M40 500h100v-52q26 35 69 51.5t102 16.5q108 0 167 -66.5t59 -198.5v-251h-100v250q0 87 -36.5 131.5t-105.5 44.5q-31 0 -59.5 -9.5t-49.5 -28.5t-33.5 -47t-12.5 -66v-275h-100v500zM134 590v65q13 -4 28 -6.5t35 -2.5q31 0 53.5 6t43 13t41 13t47.5 6q19 0 33.5 -3
t28.5 -8v-64q-14 5 -28.5 8t-33.5 3q-27 0 -47.5 -6t-41 -13.5t-43 -13.5t-53.5 -6q-20 0 -35 2.5t-28 6.5z" />
    <glyph glyph-name="ograve" unicode="&#xf2;" 
d="M272 515q55 0 102 -20t81.5 -55t54 -83.5t19.5 -105.5t-19.5 -105.5t-54 -84.5t-81.5 -56t-102 -20t-102 20t-81.5 56t-54 84.5t-19.5 105.5t19.5 105.5t54 83.5t81.5 55t102 20zM273 74q33 0 61.5 13.5t49.5 37.5t33 56.5t12 69.5q0 38 -12 70t-33 55t-49.5 36.5
t-61.5 13.5q-34 0 -63 -13.5t-50 -36.5t-33 -55t-12 -70q0 -37 12 -69.5t33 -56.5t50 -37.5t63 -13.5zM202 700h102l74 -106h-90z" />
    <glyph glyph-name="oacute" unicode="&#xf3;" 
d="M272 515q55 0 102 -20t81.5 -55t54 -83.5t19.5 -105.5t-19.5 -105.5t-54 -84.5t-81.5 -56t-102 -20t-102 20t-81.5 56t-54 84.5t-19.5 105.5t19.5 105.5t54 83.5t81.5 55t102 20zM273 74q33 0 61.5 13.5t49.5 37.5t33 56.5t12 69.5q0 38 -12 70t-33 55t-49.5 36.5
t-61.5 13.5q-34 0 -63 -13.5t-50 -36.5t-33 -55t-12 -70q0 -37 12 -69.5t33 -56.5t50 -37.5t63 -13.5zM292 594h-90l74 106h102z" />
    <glyph glyph-name="ocircumflex" unicode="&#xf4;" 
d="M272 515q55 0 102 -20t81.5 -55t54 -83.5t19.5 -105.5t-19.5 -105.5t-54 -84.5t-81.5 -56t-102 -20t-102 20t-81.5 56t-54 84.5t-19.5 105.5t19.5 105.5t54 83.5t81.5 55t102 20zM273 74q33 0 61.5 13.5t49.5 37.5t33 56.5t12 69.5q0 38 -12 70t-33 55t-49.5 36.5
t-61.5 13.5q-34 0 -63 -13.5t-50 -36.5t-33 -55t-12 -70q0 -37 12 -69.5t33 -56.5t50 -37.5t63 -13.5zM144 627l74 106h107l74 -106h-81l-46 58l-47 -58h-81z" />
    <glyph glyph-name="otilde" unicode="&#xf5;" 
d="M272 515q55 0 102 -20t81.5 -55t54 -83.5t19.5 -105.5t-19.5 -105.5t-54 -84.5t-81.5 -56t-102 -20t-102 20t-81.5 56t-54 84.5t-19.5 105.5t19.5 105.5t54 83.5t81.5 55t102 20zM273 74q33 0 61.5 13.5t49.5 37.5t33 56.5t12 69.5q0 38 -12 70t-33 55t-49.5 36.5
t-61.5 13.5q-34 0 -63 -13.5t-50 -36.5t-33 -55t-12 -70q0 -37 12 -69.5t33 -56.5t50 -37.5t63 -13.5zM123 590v65q13 -4 28 -6.5t35 -2.5q31 0 53.5 6t43 13t41 13t47.5 6q19 0 33.5 -3t28.5 -8v-64q-14 5 -28.5 8t-33.5 3q-27 0 -47.5 -6t-41 -13.5t-43 -13.5t-53.5 -6
q-20 0 -35 2.5t-28 6.5z" />
    <glyph glyph-name="odieresis" unicode="&#xf6;" 
d="M272 515q55 0 102 -20t81.5 -55t54 -83.5t19.5 -105.5t-19.5 -105.5t-54 -84.5t-81.5 -56t-102 -20t-102 20t-81.5 56t-54 84.5t-19.5 105.5t19.5 105.5t54 83.5t81.5 55t102 20zM273 74q33 0 61.5 13.5t49.5 37.5t33 56.5t12 69.5q0 38 -12 70t-33 55t-49.5 36.5
t-61.5 13.5q-34 0 -63 -13.5t-50 -36.5t-33 -55t-12 -70q0 -37 12 -69.5t33 -56.5t50 -37.5t63 -13.5zM165 660q0 23 16 39t39 16t39 -16t16 -39q0 -22 -16 -38t-39 -16t-39 16t-16 38zM397 715q23 0 39 -16t16 -39q0 -22 -16 -38t-39 -16t-38.5 16t-15.5 38q0 23 15.5 39
t38.5 16z" />
    <glyph glyph-name="divide" unicode="&#xf7;" horiz-adv-x="581" 
d="M450 368v-89h-335v89h335zM226 184q0 23 17 39.5t40 16.5t39.5 -16.5t16.5 -39.5t-16.5 -39.5t-39.5 -16.5t-40 16.5t-17 39.5zM283 518q23 0 39.5 -16.5t16.5 -39.5t-16.5 -39.5t-39.5 -16.5t-40 16.5t-17 39.5t17 39.5t40 16.5z" />
    <glyph glyph-name="oslash" unicode="&#xf8;" 
d="M272 515q55 0 102 -20t81.5 -55t54 -83.5t19.5 -105.5t-19.5 -105.5t-54 -84.5t-81.5 -56t-102 -20t-102 20t-81.5 56t-54 84.5t-19.5 105.5t19.5 105.5t54 83.5t81.5 55t102 20zM273 74q33 0 61.5 13.5t49.5 37.5t33 56.5t12 69.5q0 38 -12 70t-33 55t-49.5 36.5
t-61.5 13.5q-34 0 -63 -13.5t-50 -36.5t-33 -55t-12 -70q0 -37 12 -69.5t33 -56.5t50 -37.5t63 -13.5zM362 615h106l-267 -700h-107z" />
    <glyph glyph-name="ugrave" unicode="&#xf9;" horiz-adv-x="553" 
d="M127 500v-278q0 -76 32 -109.5t97 -33.5q75 0 113.5 36t39.5 114v271h100v-500h-100v62q-26 -41 -68.5 -59.5t-101.5 -18.5q-53 0 -92.5 16t-66 43t-40 61.5t-13.5 71.5v324h100zM206 700h102l74 -106h-90z" />
    <glyph glyph-name="uacute" unicode="&#xfa;" horiz-adv-x="553" 
d="M127 500v-278q0 -76 32 -109.5t97 -33.5q75 0 113.5 36t39.5 114v271h100v-500h-100v62q-26 -41 -68.5 -59.5t-101.5 -18.5q-53 0 -92.5 16t-66 43t-40 61.5t-13.5 71.5v324h100zM296 594h-90l74 106h102z" />
    <glyph glyph-name="ucircumflex" unicode="&#xfb;" horiz-adv-x="553" 
d="M127 500v-278q0 -76 32 -109.5t97 -33.5q75 0 113.5 36t39.5 114v271h100v-500h-100v62q-26 -41 -68.5 -59.5t-101.5 -18.5q-53 0 -92.5 16t-66 43t-40 61.5t-13.5 71.5v324h100zM175 627l74 106h107l74 -106h-81l-46 58l-47 -58h-81z" />
    <glyph glyph-name="udieresis" unicode="&#xfc;" horiz-adv-x="553" 
d="M127 500v-278q0 -76 32 -109.5t97 -33.5q75 0 113.5 36t39.5 114v271h100v-500h-100v62q-26 -41 -68.5 -59.5t-101.5 -18.5q-53 0 -92.5 16t-66 43t-40 61.5t-13.5 71.5v324h100zM170 660q0 23 16 39t39 16t39 -16t16 -39q0 -22 -16 -38t-39 -16t-39 16t-16 38zM402 715
q23 0 39 -16t16 -39q0 -22 -16 -38t-39 -16t-38.5 16t-15.5 38q0 23 15.5 39t38.5 16z" />
    <glyph glyph-name="yacute" unicode="&#xfd;" horiz-adv-x="567" 
d="M30 231v269h100v-269q0 -77 34.5 -117t107.5 -40q155 0 155 154v272h100v-675q0 -34 -20.5 -54.5t-54.5 -20.5h-350v89h325v217q-24 -38 -65.5 -55t-107.5 -17q-51 0 -92.5 19t-70.5 52.5t-45 78.5t-16 97zM303 594h-90l74 106h102z" />
    <glyph glyph-name="thorn" unicode="&#xfe;" horiz-adv-x="550" 
d="M46 108.788h100v-358.524h-100v358.524zM37 700h100v-235q56 50 143 50q55 0 98 -20t73 -55t46 -83t16 -105t-16 -106t-46 -85t-73 -56t-98 -20q-45 0 -80.5 13t-62.5 37v-35h-100v700zM275 74q34 0 61 13.5t46 37.5t29 56.5t10 69.5q0 38 -10 70t-29 55t-46 36.5
t-61 13.5q-33 0 -61.5 -13.5t-48.5 -36.5t-31.5 -55t-11.5 -70q0 -37 11.5 -69.5t31.5 -56.5t48 -37.5t62 -13.5z" />
    <glyph glyph-name="ydieresis" unicode="&#xff;" horiz-adv-x="567" 
d="M30 231v269h100v-269q0 -77 34.5 -117t107.5 -40q155 0 155 154v272h100v-675q0 -34 -20.5 -54.5t-54.5 -20.5h-350v89h325v217q-24 -38 -65.5 -55t-107.5 -17q-51 0 -92.5 19t-70.5 52.5t-45 78.5t-16 97zM177 660q0 23 16 39t39 16t39 -16t16 -39q0 -22 -16 -38
t-39 -16t-39 16t-16 38zM409 715q23 0 39 -16t16 -39q0 -22 -16 -38t-39 -16t-38.5 16t-15.5 38q0 23 15.5 39t38.5 16z" />
    <glyph glyph-name="Amacron" unicode="&#x100;" horiz-adv-x="676" 
d="M26 0l255 700h111l260 -700h-100l-82 224h-265l-80 -224h-99zM237 313h201l-102 277zM89 826h500v-71h-500v71z" />
    <glyph glyph-name="amacron" unicode="&#x101;" horiz-adv-x="479" 
d="M197 328h162v83h-278v89h303q34 0 54.5 -20.5t20.5 -54.5v-425h-100v87q-13 -26 -26 -45.5t-29.5 -32.5t-39 -19t-54.5 -6q-46 0 -84 13t-66 36t-43.5 55t-15.5 71q0 42 16 74t43 53t62.5 31.5t74.5 10.5zM211 74q72 0 109.5 43t38.5 128h-153q-48 0 -76.5 -22.5
t-28.5 -60.5q0 -18 8 -34t23 -28t35.5 -19t43.5 -7zM84.0107 654h376.343v-71h-376.343v71z" />
    <glyph glyph-name="Abreve" unicode="&#x102;" horiz-adv-x="676" 
d="M26 0l255 700h111l260 -700h-100l-82 224h-265l-80 -224h-99zM237 313h201l-102 277zM190 811v38h75v-42h147v42h75v-38q0 -34 -20.5 -54.5t-54.5 -20.5h-147q-34 0 -54.5 20.5t-20.5 54.5z" />
    <glyph glyph-name="abreve" unicode="&#x103;" horiz-adv-x="520" 
d="M218 328h162v83h-278v89h303q34 0 54.5 -20.5t20.5 -54.5v-425h-100v87q-13 -26 -26 -45.5t-29.5 -32.5t-39 -19t-54.5 -6q-46 0 -84 13t-66 36t-43.5 55t-15.5 71q0 42 16 74t43 53t62.5 31.5t74.5 10.5zM232 74q72 0 109.5 43t38.5 128h-153q-48 0 -76.5 -22.5
t-28.5 -60.5q0 -18 8 -34t23 -28t35.5 -19t43.5 -7zM117 684v38h75v-42h147v42h75v-38q0 -34 -20.5 -54.5t-54.5 -20.5h-147q-34 0 -54.5 20.5t-20.5 54.5z" />
    <glyph glyph-name="Aogonek" unicode="&#x104;" horiz-adv-x="676" 
d="M31 0l255 700h111l260 -700h-100l-82 224h-265l-80 -224h-99zM242 313h201l-102 277zM594 0h63q-39 -39 -55.5 -67.5t-16.5 -54.5q0 -19 14 -28t31 -14q19 -5 44 -5l1 -60q-32 0 -62 2.5t-53.5 12.5t-37.5 30t-14 55q0 26 13.5 49.5t29.5 40.5q19 21 43 39z" />
    <glyph glyph-name="aogonek" unicode="&#x105;" horiz-adv-x="505" 
d="M211 328h162v83h-278v89h303q34 0 54.5 -20.5t20.5 -54.5v-425h-100v87q-13 -26 -26 -45.5t-29.5 -32.5t-39 -19t-54.5 -6q-46 0 -84 13t-66 36t-43.5 55t-15.5 71q0 42 16 74t43 53t62.5 31.5t74.5 10.5zM225 74q72 0 109.5 43t38.5 128h-153q-48 0 -76.5 -22.5
t-28.5 -60.5q0 -18 8 -34t23 -28t35.5 -19t43.5 -7zM409 0h63q-39 -39 -55.5 -67.5t-16.5 -54.5q0 -19 14 -28t31 -14q19 -5 44 -5l1 -60q-32 0 -62 2.5t-53.5 12.5t-37.5 30t-14 55q0 26 13.5 49.5t29.5 40.5q19 21 43 39z" />
    <glyph glyph-name="Cacute" unicode="&#x106;" horiz-adv-x="730" 
d="M23 350q0 78 26.5 145t73 116t111 76.5t139.5 27.5q63 0 118.5 -19.5t99.5 -54.5t75.5 -84t46.5 -108h-104q-13 39 -36 71.5t-54 56t-68 36t-78 12.5q-54 0 -99.5 -21t-79 -58t-52.5 -87.5t-19 -109.5t19 -109.5t52 -87t79 -57.5t100 -21q41 0 78 12.5t68 36t54 55.5
t36 71h103q-15 -58 -46 -107t-75.5 -83.5t-99.5 -54t-118 -19.5q-75 0 -139.5 27.5t-111 76.5t-73 116t-26.5 145zM367 740h-90l74 106h102z" />
    <glyph glyph-name="cacute" unicode="&#x107;" horiz-adv-x="519" 
d="M19 242q0 56 18.5 103t51.5 81.5t78.5 54t98.5 19.5q44 0 83 -14t70 -38.5t53.5 -59t32.5 -76.5h-107q-17 42 -52.5 66.5t-80.5 24.5q-31 0 -58 -12t-46.5 -34t-30.5 -51t-11 -64q0 -34 11 -63.5t30.5 -51.5t46 -34t57.5 -12q46 0 81.5 24.5t52.5 66.5h107
q-10 -42 -32.5 -76t-53.5 -59t-70 -38.5t-83 -13.5q-53 0 -98.5 19.5t-78.5 54t-51.5 81.5t-18.5 102zM280 594h-90l74 106h102z" />
    <glyph glyph-name="Ccircumflex" unicode="&#x108;" horiz-adv-x="730" 
d="M23 350q0 78 26.5 145t73 116t111 76.5t139.5 27.5q63 0 118.5 -19.5t99.5 -54.5t75.5 -84t46.5 -108h-104q-13 39 -36 71.5t-54 56t-68 36t-78 12.5q-54 0 -99.5 -21t-79 -58t-52.5 -87.5t-19 -109.5t19 -109.5t52 -87t79 -57.5t100 -21q41 0 78 12.5t68 36t54 55.5
t36 71h103q-15 -58 -46 -107t-75.5 -83.5t-99.5 -54t-118 -19.5q-75 0 -139.5 27.5t-111 76.5t-73 116t-26.5 145zM237 740l74 106h107l74 -106h-81l-46 58l-47 -58h-81z" />
    <glyph glyph-name="ccircumflex" unicode="&#x109;" horiz-adv-x="519" 
d="M19 242q0 56 18.5 103t51.5 81.5t78.5 54t98.5 19.5q44 0 83 -14t70 -38.5t53.5 -59t32.5 -76.5h-107q-17 42 -52.5 66.5t-80.5 24.5q-31 0 -58 -12t-46.5 -34t-30.5 -51t-11 -64q0 -34 11 -63.5t30.5 -51.5t46 -34t57.5 -12q46 0 81.5 24.5t52.5 66.5h107
q-10 -42 -32.5 -76t-53.5 -59t-70 -38.5t-83 -13.5q-53 0 -98.5 19.5t-78.5 54t-51.5 81.5t-18.5 102zM159 627l74 106h107l74 -106h-81l-46 58l-47 -58h-81z" />
    <glyph glyph-name="Cdotaccent" unicode="&#x10a;" horiz-adv-x="730" 
d="M23 350q0 78 26.5 145t73 116t111 76.5t139.5 27.5q63 0 118.5 -19.5t99.5 -54.5t75.5 -84t46.5 -108h-104q-13 39 -36 71.5t-54 56t-68 36t-78 12.5q-54 0 -99.5 -21t-79 -58t-52.5 -87.5t-19 -109.5t19 -109.5t52 -87t79 -57.5t100 -21q41 0 78 12.5t68 36t54 55.5
t36 71h103q-15 -58 -46 -107t-75.5 -83.5t-99.5 -54t-118 -19.5q-75 0 -139.5 27.5t-111 76.5t-73 116t-26.5 145zM299 802q0 27 19.5 46.5t46.5 19.5t46.5 -19.5t19.5 -46.5t-19.5 -46.5t-46.5 -19.5t-46.5 19.5t-19.5 46.5z" />
    <glyph glyph-name="cdotaccent" unicode="&#x10b;" horiz-adv-x="519" 
d="M19 242q0 56 18.5 103t51.5 81.5t78.5 54t98.5 19.5q44 0 83 -14t70 -38.5t53.5 -59t32.5 -76.5h-107q-17 42 -52.5 66.5t-80.5 24.5q-31 0 -58 -12t-46.5 -34t-30.5 -51t-11 -64q0 -34 11 -63.5t30.5 -51.5t46 -34t57.5 -12q46 0 81.5 24.5t52.5 66.5h107
q-10 -42 -32.5 -76t-53.5 -59t-70 -38.5t-83 -13.5q-53 0 -98.5 19.5t-78.5 54t-51.5 81.5t-18.5 102zM203 649q0 27 19.5 46.5t46.5 19.5t46.5 -19.5t19.5 -46.5t-19.5 -46.5t-46.5 -19.5t-46.5 19.5t-19.5 46.5z" />
    <glyph glyph-name="Ccaron" unicode="&#x10c;" horiz-adv-x="730" 
d="M23 350q0 78 26.5 145t73 116t111 76.5t139.5 27.5q63 0 118.5 -19.5t99.5 -54.5t75.5 -84t46.5 -108h-104q-13 39 -36 71.5t-54 56t-68 36t-78 12.5q-54 0 -99.5 -21t-79 -58t-52.5 -87.5t-19 -109.5t19 -109.5t52 -87t79 -57.5t100 -21q41 0 78 12.5t68 36t54 55.5
t36 71h103q-15 -58 -46 -107t-75.5 -83.5t-99.5 -54t-118 -19.5q-75 0 -139.5 27.5t-111 76.5t-73 116t-26.5 145zM241 846h81l47 -58l47 58h74l-73 -106h-102z" />
    <glyph glyph-name="ccaron" unicode="&#x10d;" horiz-adv-x="519" 
d="M19 242q0 56 18.5 103t51.5 81.5t78.5 54t98.5 19.5q44 0 83 -14t70 -38.5t53.5 -59t32.5 -76.5h-107q-17 42 -52.5 66.5t-80.5 24.5q-31 0 -58 -12t-46.5 -34t-30.5 -51t-11 -64q0 -34 11 -63.5t30.5 -51.5t46 -34t57.5 -12q46 0 81.5 24.5t52.5 66.5h107
q-10 -42 -32.5 -76t-53.5 -59t-70 -38.5t-83 -13.5q-53 0 -98.5 19.5t-78.5 54t-51.5 81.5t-18.5 102zM143 733h81l47 -58l47 58h74l-73 -106h-102z" />
    <glyph glyph-name="Dcaron" unicode="&#x10e;" horiz-adv-x="647" 
d="M51 700h252q72 0 131.5 -27t102 -73.5t65.5 -108.5t23 -131q0 -59 -18 -122.5t-55.5 -116.5t-96 -87t-139.5 -34h-265v700zM151 89h140q60 0 104 21.5t73 58.5t43 88t14 109q0 49 -18 93.5t-50.5 78t-78 53.5t-101.5 20h-126v-522zM199 846h81l47 -58l47 58h74l-73 -106
h-102z" />
    <glyph glyph-name="dcaron" unicode="&#x10f;" horiz-adv-x="728" 
d="M25 252q0 57 16 105t46 83t73 55t98 20q45 0 80.5 -13t62.5 -37v235h100v-700h-100v35q-27 -24 -62 -37t-80 -13q-55 0 -98.5 20t-73.5 56t-46 85t-16 106zM263 74q34 0 62 13.5t48.5 37.5t31.5 56.5t11 69.5q0 38 -11 70t-31.5 55t-48.5 36.5t-62 13.5t-61 -13.5
t-46 -36.5t-29 -55t-10 -70q0 -37 10 -69.5t29 -56.5t46 -37.5t61 -13.5zM648 594h-74l73 106h86z" />
    <glyph glyph-name="Dcroat" unicode="&#x110;" horiz-adv-x="641" 
d="M54 700h252q72 0 131.5 -27t102 -73.5t65.5 -108.5t23 -131q0 -59 -18 -122.5t-55.5 -116.5t-96 -87t-139.5 -34h-265v700zM154 89h140q60 0 104 21.5t73 58.5t43 88t14 109q0 49 -18 93.5t-50.5 78t-78 53.5t-101.5 20h-126v-522zM10 418h228v-89h-228v89z" />
    <glyph glyph-name="dcroat" unicode="&#x111;" horiz-adv-x="527" 
d="M12 252q0 57 16 105t46 83t73 55t98 20q45 0 80.5 -13t62.5 -37v235h100v-700h-100v35q-27 -24 -62 -37t-80 -13q-55 0 -98.5 20t-73.5 56t-46 85t-16 106zM250 74q34 0 62 13.5t48.5 37.5t31.5 56.5t11 69.5q0 38 -11 70t-31.5 55t-48.5 36.5t-62 13.5t-61 -13.5
t-46 -36.5t-29 -55t-10 -70q0 -37 10 -69.5t29 -56.5t46 -37.5t61 -13.5zM43 646.455h500v-90.8945h-500v90.8945z" />
    <glyph glyph-name="Emacron" unicode="&#x112;" horiz-adv-x="566" 
d="M43 700h493v-89h-393v-204h303v-92h-303v-226h395v-89h-495v700zM34 826h500v-71h-500v71z" />
    <glyph glyph-name="emacron" unicode="&#x113;" 
d="M15 251q0 57 19.5 105.5t54 83.5t81.5 55t102 20t102 -20t81.5 -55t54 -83.5t19.5 -105.5q0 -11 -0.5 -20.5t-1.5 -20.5h-408q12 -60 53.5 -98t99.5 -38q46 0 81.5 24t55.5 64h107q-13 -39 -36.5 -72t-55 -56t-70 -36t-82.5 -13q-55 0 -102 20t-81.5 56t-54 84.5
t-19.5 105.5zM425 297q-12 57 -52.5 93t-99.5 36t-99.5 -36t-53.5 -93h305zM62.4141 655h426.789v-71h-426.789v71z" />
    <glyph glyph-name="Ebreve" unicode="&#x114;" horiz-adv-x="566" 
d="M43 700h493v-89h-393v-204h303v-92h-303v-226h395v-89h-495v700zM135 811v38h75v-42h147v42h75v-38q0 -34 -20.5 -54.5t-54.5 -20.5h-147q-34 0 -54.5 20.5t-20.5 54.5z" />
    <glyph glyph-name="ebreve" unicode="&#x115;" 
d="M15 251q0 57 19.5 105.5t54 83.5t81.5 55t102 20t102 -20t81.5 -55t54 -83.5t19.5 -105.5q0 -11 -0.5 -20.5t-1.5 -20.5h-408q12 -60 53.5 -98t99.5 -38q46 0 81.5 24t55.5 64h107q-13 -39 -36.5 -72t-55 -56t-70 -36t-82.5 -13q-55 0 -102 20t-81.5 56t-54 84.5
t-19.5 105.5zM425 297q-12 57 -52.5 93t-99.5 36t-99.5 -36t-53.5 -93h305zM129 684v38h75v-42h147v42h75v-38q0 -34 -20.5 -54.5t-54.5 -20.5h-147q-34 0 -54.5 20.5t-20.5 54.5z" />
    <glyph glyph-name="Edotaccent" unicode="&#x116;" horiz-adv-x="566" 
d="M43 700h493v-89h-393v-204h303v-92h-303v-226h395v-89h-495v700zM217 802q0 27 19.5 46.5t46.5 19.5t46.5 -19.5t19.5 -46.5t-19.5 -46.5t-46.5 -19.5t-46.5 19.5t-19.5 46.5z" />
    <glyph glyph-name="edotaccent" unicode="&#x117;" 
d="M15 251q0 57 19.5 105.5t54 83.5t81.5 55t102 20t102 -20t81.5 -55t54 -83.5t19.5 -105.5q0 -11 -0.5 -20.5t-1.5 -20.5h-408q12 -60 53.5 -98t99.5 -38q46 0 81.5 24t55.5 64h107q-13 -39 -36.5 -72t-55 -56t-70 -36t-82.5 -13q-55 0 -102 20t-81.5 56t-54 84.5
t-19.5 105.5zM425 297q-12 57 -52.5 93t-99.5 36t-99.5 -36t-53.5 -93h305zM215 649q0 27 19.5 46.5t46.5 19.5t46.5 -19.5t19.5 -46.5t-19.5 -46.5t-46.5 -19.5t-46.5 19.5t-19.5 46.5z" />
    <glyph glyph-name="Eogonek" unicode="&#x118;" horiz-adv-x="550" 
d="M38 700h493v-89h-393v-204h303v-92h-303v-226h395v-89h-495v700zM475 1h63q-39 -39 -55.5 -67.5t-16.5 -54.5q0 -19 14 -28t31 -14q19 -5 44 -5l1 -60q-32 0 -62 2.5t-53.5 12.5t-37.5 30t-14 55q0 26 13.5 49.5t29.5 40.5q19 21 43 39z" />
    <glyph glyph-name="eogonek" unicode="&#x119;" 
d="M15 251q0 57 19.5 105.5t54 83.5t81.5 55t102 20t102 -20t81.5 -55t54 -83.5t19.5 -105.5q0 -11 -0.5 -20.5t-1.5 -20.5h-408q12 -60 53.5 -98t99.5 -38q46 0 81.5 24t55.5 64h107q-13 -39 -36.5 -72t-55 -56t-70 -36t-82.5 -13q-55 0 -102 20t-81.5 56t-54 84.5
t-19.5 105.5zM425 297q-12 57 -52.5 93t-99.5 36t-99.5 -36t-53.5 -93h305zM414 76h63q-39 -39 -55.5 -67.5t-16.5 -54.5q0 -19 14 -28t31 -14q19 -5 44 -5l1 -60q-32 0 -62 2.5t-53.5 12.5t-37.5 30t-14 55q0 26 13.5 49.5t29.5 40.5q19 21 43 39z" />
    <glyph glyph-name="Ecaron" unicode="&#x11a;" horiz-adv-x="566" 
d="M43 700h493v-89h-393v-204h303v-92h-303v-226h395v-89h-495v700zM159 846h81l47 -58l47 58h74l-73 -106h-102z" />
    <glyph glyph-name="ecaron" unicode="&#x11b;" 
d="M15 251q0 57 19.5 105.5t54 83.5t81.5 55t102 20t102 -20t81.5 -55t54 -83.5t19.5 -105.5q0 -11 -0.5 -20.5t-1.5 -20.5h-408q12 -60 53.5 -98t99.5 -38q46 0 81.5 24t55.5 64h107q-13 -39 -36.5 -72t-55 -56t-70 -36t-82.5 -13q-55 0 -102 20t-81.5 56t-54 84.5
t-19.5 105.5zM425 297q-12 57 -52.5 93t-99.5 36t-99.5 -36t-53.5 -93h305zM145 733h81l47 -58l47 58h74l-73 -106h-102z" />
    <glyph glyph-name="Gcircumflex" unicode="&#x11c;" horiz-adv-x="741" 
d="M16 350q0 78 26.5 145t73 116t111 76.5t139.5 27.5q63 0 118.5 -19.5t99.5 -54.5t75.5 -84t46.5 -108h-104q-13 39 -36 71.5t-54 56t-68 36t-78 12.5q-54 0 -99.5 -21t-79 -58t-52.5 -87.5t-19 -109.5t19 -109.5t52 -87t79 -57.5t100 -21q78 0 138.5 42.5t90.5 113.5
h-220v89l330 1v-320h-100v77q-46 -44 -106.5 -68t-132.5 -24q-75 0 -139.5 27.5t-111 76.5t-73 116t-26.5 145zM243 740l74 106h107l74 -106h-81l-46 58l-47 -58h-81z" />
    <glyph glyph-name="gcircumflex" unicode="&#x11d;" horiz-adv-x="529" 
d="M13 252q0 57 16 105t46 83t73 55t98 20q45 0 80.5 -13t62.5 -37v35h100l-1 -675q0 -34 -20.5 -54.5t-54.5 -20.5h-350v89h326v196q-27 -24 -62 -37t-80 -13q-55 0 -98.5 20t-73.5 56t-46 85t-16 106zM251 74q34 0 62 13.5t48.5 37.5t31.5 56.5t11 69.5q0 38 -11 70
t-31.5 55t-48.5 36.5t-62 13.5t-61 -13.5t-46 -36.5t-29 -55t-10 -70q0 -37 10 -69.5t29 -56.5t46 -37.5t61 -13.5zM163 627l74 106h107l74 -106h-81l-46 58l-47 -58h-81z" />
    <glyph glyph-name="Gbreve" unicode="&#x11e;" horiz-adv-x="741" 
d="M16 350q0 78 26.5 145t73 116t111 76.5t139.5 27.5q63 0 118.5 -19.5t99.5 -54.5t75.5 -84t46.5 -108h-104q-13 39 -36 71.5t-54 56t-68 36t-78 12.5q-54 0 -99.5 -21t-79 -58t-52.5 -87.5t-19 -109.5t19 -109.5t52 -87t79 -57.5t100 -21q78 0 138.5 42.5t90.5 113.5
h-220v89l330 1v-320h-100v77q-46 -44 -106.5 -68t-132.5 -24q-75 0 -139.5 27.5t-111 76.5t-73 116t-26.5 145zM222 811v38h75v-42h147v42h75v-38q0 -34 -20.5 -54.5t-54.5 -20.5h-147q-34 0 -54.5 20.5t-20.5 54.5z" />
    <glyph glyph-name="gbreve" unicode="&#x11f;" horiz-adv-x="529" 
d="M13 252q0 57 16 105t46 83t73 55t98 20q45 0 80.5 -13t62.5 -37v35h100l-1 -675q0 -34 -20.5 -54.5t-54.5 -20.5h-350v89h326v196q-27 -24 -62 -37t-80 -13q-55 0 -98.5 20t-73.5 56t-46 85t-16 106zM251 74q34 0 62 13.5t48.5 37.5t31.5 56.5t11 69.5q0 38 -11 70
t-31.5 55t-48.5 36.5t-62 13.5t-61 -13.5t-46 -36.5t-29 -55t-10 -70q0 -37 10 -69.5t29 -56.5t46 -37.5t61 -13.5zM122 684v38h75v-42h147v42h75v-38q0 -34 -20.5 -54.5t-54.5 -20.5h-147q-34 0 -54.5 20.5t-20.5 54.5z" />
    <glyph glyph-name="Gdotaccent" unicode="&#x120;" horiz-adv-x="741" 
d="M16 350q0 78 26.5 145t73 116t111 76.5t139.5 27.5q63 0 118.5 -19.5t99.5 -54.5t75.5 -84t46.5 -108h-104q-13 39 -36 71.5t-54 56t-68 36t-78 12.5q-54 0 -99.5 -21t-79 -58t-52.5 -87.5t-19 -109.5t19 -109.5t52 -87t79 -57.5t100 -21q78 0 138.5 42.5t90.5 113.5
h-220v89l330 1v-320h-100v77q-46 -44 -106.5 -68t-132.5 -24q-75 0 -139.5 27.5t-111 76.5t-73 116t-26.5 145zM305 802q0 27 19.5 46.5t46.5 19.5t46.5 -19.5t19.5 -46.5t-19.5 -46.5t-46.5 -19.5t-46.5 19.5t-19.5 46.5z" />
    <glyph glyph-name="gdotaccent" unicode="&#x121;" horiz-adv-x="529" 
d="M13 252q0 57 16 105t46 83t73 55t98 20q45 0 80.5 -13t62.5 -37v35h100l-1 -675q0 -34 -20.5 -54.5t-54.5 -20.5h-350v89h326v196q-27 -24 -62 -37t-80 -13q-55 0 -98.5 20t-73.5 56t-46 85t-16 106zM251 74q34 0 62 13.5t48.5 37.5t31.5 56.5t11 69.5q0 38 -11 70
t-31.5 55t-48.5 36.5t-62 13.5t-61 -13.5t-46 -36.5t-29 -55t-10 -70q0 -37 10 -69.5t29 -56.5t46 -37.5t61 -13.5zM208 649q0 27 19.5 46.5t46.5 19.5t46.5 -19.5t19.5 -46.5t-19.5 -46.5t-46.5 -19.5t-46.5 19.5t-19.5 46.5z" />
    <glyph glyph-name="uni0122" unicode="&#x122;" horiz-adv-x="741" 
d="M16 350q0 78 26.5 145t73 116t111 76.5t139.5 27.5q63 0 118.5 -19.5t99.5 -54.5t75.5 -84t46.5 -108h-104q-13 39 -36 71.5t-54 56t-68 36t-78 12.5q-54 0 -99.5 -21t-79 -58t-52.5 -87.5t-19 -109.5t19 -109.5t52 -87t79 -57.5t100 -21q78 0 138.5 42.5t90.5 113.5
h-220v89l330 1v-320h-100v77q-46 -44 -106.5 -68t-132.5 -24q-75 0 -139.5 27.5t-111 76.5t-73 116t-26.5 145zM373 -191h-90l74 106h102z" />
    <glyph glyph-name="uni0123" unicode="&#x123;" horiz-adv-x="529" 
d="M13 252q0 57 16 105t46 83t73 55t98 20q45 0 80.5 -13t62.5 -37v35h100l-1 -675q0 -34 -20.5 -54.5t-54.5 -20.5h-350v89h326v196q-27 -24 -62 -37t-80 -13q-55 0 -98.5 20t-73.5 56t-46 85t-16 106zM251 74q34 0 62 13.5t48.5 37.5t31.5 56.5t11 69.5q0 38 -11 70
t-31.5 55t-48.5 36.5t-62 13.5t-61 -13.5t-46 -36.5t-29 -55t-10 -70q0 -37 10 -69.5t29 -56.5t46 -37.5t61 -13.5zM288 708h74l-73 -106h-86z" />
    <glyph glyph-name="Hcircumflex" unicode="&#x124;" horiz-adv-x="664" 
d="M42 0v700h100v-285h380v285h100v-700h-100v326h-380v-326h-100zM204 740l74 106h107l74 -106h-81l-46 58l-47 -58h-81z" />
    <glyph glyph-name="hcircumflex" unicode="&#x125;" horiz-adv-x="583" 
d="M48 0v700h100v-252q26 35 68.5 51.5t102.5 16.5q108 0 167 -66.5t59 -198.5v-251h-100l-1 250q0 87 -36 131.5t-105 44.5q-31 0 -59.5 -9.5t-49.5 -28.5t-33.5 -47t-12.5 -66v-275h-100zM72 885h108l73 -106h-81l-46 58l-47 -58h-81z" />
    <glyph glyph-name="Hbar" unicode="&#x126;" horiz-adv-x="699" 
d="M54 0v700h100v-285h380v285h100v-700h-100v326h-380v-326h-100zM16.291 615h661.438v-71h-661.438v71z" />
    <glyph glyph-name="hbar" unicode="&#x127;" horiz-adv-x="558" 
d="M136 584v-136q26 35 68.5 51.5t101.5 16.5q109 0 168 -66.5t59 -198.5v-251h-100l-1 250q0 87 -36 131.5t-105 44.5q-31 0 -59.5 -9.5t-49.5 -28.5t-33.5 -47t-12.5 -66v-275h-100l-1 584h-37v71h38v45h100l-1 -45h290v-71h-289z" />
    <glyph glyph-name="Itilde" unicode="&#x128;" horiz-adv-x="228" 
d="M64 700h100v-700h-100v700zM-41 749v65q13 -4 28 -6.5t35 -2.5q31 0 53.5 6t43 13t41 13t47.5 6q19 0 33.5 -3t28.5 -8v-64q-14 5 -28.5 8t-33.5 3q-27 0 -47.5 -6t-41 -13.5t-43 -13.5t-53.5 -6q-20 0 -35 2.5t-28 6.5z" />
    <glyph glyph-name="itilde" unicode="&#x129;" horiz-adv-x="196" 
d="M57 500h100v-500h-100v500zM-51 590v65q13 -4 28 -6.5t35 -2.5q31 0 53.5 6t43 13t41 13t47.5 6q19 0 33.5 -3t28.5 -8v-64q-14 5 -28.5 8t-33.5 3q-27 0 -47.5 -6t-41 -13.5t-43 -13.5t-53.5 -6q-20 0 -35 2.5t-28 6.5z" />
    <glyph glyph-name="Imacron" unicode="&#x12a;" horiz-adv-x="228" 
d="M64 700h100v-700h-100v700zM-136 826h500v-71h-500v71z" />
    <glyph glyph-name="imacron" unicode="&#x12b;" horiz-adv-x="178" 
d="M48 500h100v-500h-100v500zM-13.0605 655h209.992v-71h-209.992v71z" />
    <glyph glyph-name="Ibreve" unicode="&#x12c;" horiz-adv-x="209" 
d="M63 700h100v-700h-100v700zM-32 951v38h75v-42h147v42h75v-38q0 -34 -20.5 -54.5t-54.5 -20.5h-147q-34 0 -54.5 20.5t-20.5 54.5z" />
    <glyph glyph-name="ibreve" unicode="&#x12d;" horiz-adv-x="189" 
d="M53 500h100v-500h-100v500zM-48 684v38h75v-42h147v42h75v-38q0 -34 -20.5 -54.5t-54.5 -20.5h-147q-34 0 -54.5 20.5t-20.5 54.5z" />
    <glyph glyph-name="Iogonek" unicode="&#x12e;" horiz-adv-x="225" 
d="M72 700h100v-700h-100v700zM109 0h63q-39 -39 -55.5 -67.5t-16.5 -54.5q0 -19 14 -28t31 -14q19 -5 44 -5l1 -60q-32 0 -62 2.5t-53.5 12.5t-37.5 30t-14 55q0 26 13.5 49.5t29.5 40.5q19 21 43 39z" />
    <glyph glyph-name="iogonek" unicode="&#x12f;" horiz-adv-x="226" 
d="M71 500h100v-500h-100v500zM55 649q0 27 19.5 46.5t46.5 19.5t46.5 -19.5t19.5 -46.5t-19.5 -46.5t-46.5 -19.5t-46.5 19.5t-19.5 46.5zM103 0h63q-39 -39 -55.5 -67.5t-16.5 -54.5q0 -19 14 -28t31 -14q19 -5 44 -5l1 -60q-32 0 -62 2.5t-53.5 12.5t-37.5 30t-14 55
q0 26 13.5 49.5t29.5 40.5q19 21 43 39z" />
    <glyph glyph-name="Idotaccent" unicode="&#x130;" horiz-adv-x="228" 
d="M64 700h100v-700h-100v700zM48 802q0 27 19.5 46.5t46.5 19.5t46.5 -19.5t19.5 -46.5t-19.5 -46.5t-46.5 -19.5t-46.5 19.5t-19.5 46.5z" />
    <glyph glyph-name="dotlessi" unicode="&#x131;" horiz-adv-x="207" 
d="M54 500h100v-500h-100v500z" />
    <glyph glyph-name="IJ" unicode="&#x132;" horiz-adv-x="737" 
d="M65 700h100v-700h-100v700zM322 172q18 -42 53.5 -66.5t80.5 -24.5q32 0 58.5 12t46 34t30.5 51.5t11 63.5l-1 458h100l1 -458q0 -55 -18.5 -102t-51.5 -81.5t-78.5 -54t-98.5 -19.5q-44 0 -83 13.5t-70 38.5t-53 59t-33 76h106z" />
    <glyph glyph-name="ij" unicode="&#x133;" horiz-adv-x="431" 
d="M54 500h100v-500h-100v500zM38 649q0 27 19.5 46.5t46.5 19.5t46.5 -19.5t19.5 -46.5t-19.5 -46.5t-46.5 -19.5t-46.5 19.5t-19.5 46.5zM233 -161h75v661h100v-675q0 -34 -20.5 -54.5t-54.5 -20.5h-100v89zM358 583q-27 0 -46.5 19.5t-19.5 46.5t19.5 46.5t46.5 19.5
t46.5 -19.5t19.5 -46.5t-19.5 -46.5t-46.5 -19.5z" />
    <glyph glyph-name="Jcircumflex" unicode="&#x134;" horiz-adv-x="534" 
d="M111 172q18 -42 53.5 -66.5t80.5 -24.5q32 0 58.5 12t46 34t30.5 51.5t11 63.5l-1 458h100l1 -458q0 -55 -18.5 -102t-51.5 -81.5t-78.5 -54t-98.5 -19.5q-44 0 -83 13.5t-70 38.5t-53 59t-33 76h106zM313 740l74 106h107l74 -106h-81l-46 58l-47 -58h-81z" />
    <glyph glyph-name="jcircumflex" unicode="&#x135;" horiz-adv-x="266" 
d="M113 -161v661h100v-675q0 -34 -20.5 -54.5t-54.5 -20.5h-100v89h75zM35 595l73 106h108l73 -106h-80l-47 58l-47 -58h-80z" />
    <glyph glyph-name="uni0136" unicode="&#x136;" horiz-adv-x="604" 
d="M58 0v700h100v-320l270 320h125l-279 -329l295 -371h-125l-235 295l-51 -61v-234h-100zM340 -191h-90l74 106h102z" />
    <glyph glyph-name="uni0137" unicode="&#x137;" horiz-adv-x="476" 
d="M61 700h100v-410l177 210h117l-199 -235l211 -265h-117l-154 194l-35 -41v-153h-100v700zM276 -191h-90l74 106h102z" />
    <glyph glyph-name="kgreenlandic" unicode="&#x138;" horiz-adv-x="476" 
d="M53 0v499h100v-209l177 210h117l-199 -235l211 -265h-117l-154 194l-35 -41v-153h-100z" />
    <glyph glyph-name="Lacute" unicode="&#x139;" horiz-adv-x="581" 
d="M62 700h100v-611h409v-89h-509v700zM174 770h-90l74 106h102z" />
    <glyph glyph-name="lacute" unicode="&#x13a;" horiz-adv-x="261" 
d="M70 700h100v-606h58v-94h-83q-34 0 -54.5 20.5t-20.5 54.5v625zM171 751h-90l74 106h102z" />
    <glyph glyph-name="uni013B" unicode="&#x13b;" horiz-adv-x="580" 
d="M61 700h100v-611h409v-89h-509v700zM328 -191h-90l74 106h102z" />
    <glyph glyph-name="uni013C" unicode="&#x13c;" horiz-adv-x="249" 
d="M64 700h100v-606h58v-94h-83q-34 0 -54.5 20.5t-20.5 54.5v625zM162 -191h-90l74 106h102z" />
    <glyph glyph-name="Lcaron" unicode="&#x13d;" horiz-adv-x="580" 
d="M61 700h100v-611h409v-89h-509v700zM469 594h-74l73 106h86z" />
    <glyph glyph-name="lcaron" unicode="&#x13e;" horiz-adv-x="443" 
d="M74 700h100v-606h58v-94h-83q-34 0 -54.5 20.5t-20.5 54.5v625zM346 594h-74l73 106h86z" />
    <glyph glyph-name="Ldot" unicode="&#x13f;" horiz-adv-x="580" 
d="M61 700h100v-611h409v-89h-509v700zM358 418q0 27 19.5 46.5t46.5 19.5t46.5 -19.5t19.5 -46.5t-19.5 -46.5t-46.5 -19.5t-46.5 19.5t-19.5 46.5z" />
    <glyph glyph-name="ldot" unicode="&#x140;" horiz-adv-x="537" 
d="M74 700h100v-606h58v-94h-83q-34 0 -54.5 20.5t-20.5 54.5v625zM300 327q0 27 19.5 46.5t46.5 19.5t46.5 -19.5t19.5 -46.5t-19.5 -46.5t-46.5 -19.5t-46.5 19.5t-19.5 46.5z" />
    <glyph glyph-name="Lslash" unicode="&#x141;" horiz-adv-x="580" 
d="M61 700h100v-611h409v-89h-509v700zM-25.4268 271.473l364.507 154.712l30.8594 -72.7168l-364.507 -154.712z" />
    <glyph glyph-name="lslash" unicode="&#x142;" horiz-adv-x="229" 
d="M54 329v371h100v-329l127 54l31 -73l-158 -67v-191h59v-94h-84q-34 0 -54.5 20.5t-20.5 54.5v168l-107 -46l-31 73z" />
    <glyph glyph-name="Nacute" unicode="&#x143;" horiz-adv-x="664" 
d="M169 700l353 -565v565h100v-700h-120l-360 576v-576h-100v700h127zM334 740h-90l74 106h102z" />
    <glyph glyph-name="nacute" unicode="&#x144;" horiz-adv-x="567" 
d="M40 500h100v-52q26 35 69 51.5t102 16.5q108 0 167 -66.5t59 -198.5v-251h-100v250q0 87 -36.5 131.5t-105.5 44.5q-31 0 -59.5 -9.5t-49.5 -28.5t-33.5 -47t-12.5 -66v-275h-100v500zM303 594h-90l74 106h102z" />
    <glyph glyph-name="uni0145" unicode="&#x145;" horiz-adv-x="664" 
d="M171 700l353 -565v565h100v-700h-120l-360 576v-576h-100v700h127zM370 -191h-90l74 106h102z" />
    <glyph glyph-name="uni0146" unicode="&#x146;" horiz-adv-x="567" 
d="M40 500h100v-52q26 35 69 51.5t102 16.5q108 0 167 -66.5t59 -198.5v-251h-100v250q0 87 -36.5 131.5t-105.5 44.5q-31 0 -59.5 -9.5t-49.5 -28.5t-33.5 -47t-12.5 -66v-275h-100v500zM321 -191h-90l74 106h102z" />
    <glyph glyph-name="Ncaron" unicode="&#x147;" horiz-adv-x="664" 
d="M169 700l353 -565v565h100v-700h-120l-360 576v-576h-100v700h127zM208 846h81l47 -58l47 58h74l-73 -106h-102z" />
    <glyph glyph-name="ncaron" unicode="&#x148;" horiz-adv-x="567" 
d="M40 500h100v-52q26 35 69 51.5t102 16.5q108 0 167 -66.5t59 -198.5v-251h-100v250q0 87 -36.5 131.5t-105.5 44.5q-31 0 -59.5 -9.5t-49.5 -28.5t-33.5 -47t-12.5 -66v-275h-100v500zM166 733h81l47 -58l47 58h74l-73 -106h-102z" />
    <glyph glyph-name="napostrophe" unicode="&#x149;" horiz-adv-x="567" 
d="M40 500h100v-52q26 35 69 51.5t102 16.5q108 0 167 -66.5t59 -198.5v-251h-100v250q0 87 -36.5 131.5t-105.5 44.5q-31 0 -59.5 -9.5t-49.5 -28.5t-33.5 -47t-12.5 -66v-275h-100v500zM296 594h-74l73 106h86z" />
    <glyph glyph-name="Eng" unicode="&#x14a;" horiz-adv-x="661" 
d="M169 700l353 -565v565h100v-700h-120l-360 576v-576h-100v700h127zM245 -68q18 -42 53.5 -66.5t80.5 -24.5q32 0 58.5 12t46 34t30.5 51.5t11 63.5l-1 458h100l1 -458q0 -55 -18.5 -102t-51.5 -81.5t-78.5 -54t-98.5 -19.5q-44 0 -83 13.5t-70 38.5t-53 59t-33 76h106z
" />
    <glyph glyph-name="eng" unicode="&#x14b;" horiz-adv-x="567" 
d="M40 500h100v-52q26 35 69 51.5t102 16.5q108 0 167 -66.5t59 -198.5v-251h-100v250q0 87 -36.5 131.5t-105.5 44.5q-31 0 -59.5 -9.5t-49.5 -28.5t-33.5 -47t-12.5 -66v-275h-100v500zM362 -250.47v61.3994h75v456.011h100v-465.67q0 -23.4551 -20.5 -37.5977
t-54.5 -14.1426h-100z" />
    <glyph glyph-name="Omacron" unicode="&#x14c;" horiz-adv-x="741" 
d="M18 350q0 78 27 145t74 116t111.5 76.5t140.5 27.5q75 0 139.5 -27.5t112 -76.5t74 -116t26.5 -145t-26.5 -145t-73.5 -116t-111.5 -76.5t-140.5 -27.5t-140.5 27.5t-111.5 76.5t-74 116t-27 145zM371 74q54 0 100.5 21t80 58t53 87.5t19.5 109.5t-19 109.5t-53 87
t-80.5 57.5t-100.5 21t-100.5 -21t-80 -58t-53 -87.5t-19.5 -109.5t19.5 -109.5t53 -87t80 -57.5t100.5 -21zM121 826h500v-71h-500v71z" />
    <glyph glyph-name="omacron" unicode="&#x14d;" 
d="M272 515q55 0 102 -20t81.5 -55t54 -83.5t19.5 -105.5t-19.5 -105.5t-54 -84.5t-81.5 -56t-102 -20t-102 20t-81.5 56t-54 84.5t-19.5 105.5t19.5 105.5t54 83.5t81.5 55t102 20zM273 74q33 0 61.5 13.5t49.5 37.5t33 56.5t12 69.5q0 38 -12 70t-33 55t-49.5 36.5
t-61.5 13.5q-34 0 -63 -13.5t-50 -36.5t-33 -55t-12 -70q0 -37 12 -69.5t33 -56.5t50 -37.5t63 -13.5zM62.4141 655h426.789v-71h-426.789v71z" />
    <glyph glyph-name="Obreve" unicode="&#x14e;" horiz-adv-x="741" 
d="M18 350q0 78 27 145t74 116t111.5 76.5t140.5 27.5q75 0 139.5 -27.5t112 -76.5t74 -116t26.5 -145t-26.5 -145t-73.5 -116t-111.5 -76.5t-140.5 -27.5t-140.5 27.5t-111.5 76.5t-74 116t-27 145zM371 74q54 0 100.5 21t80 58t53 87.5t19.5 109.5t-19 109.5t-53 87
t-80.5 57.5t-100.5 21t-100.5 -21t-80 -58t-53 -87.5t-19.5 -109.5t19.5 -109.5t53 -87t80 -57.5t100.5 -21zM222 811v38h75v-42h147v42h75v-38q0 -34 -20.5 -54.5t-54.5 -20.5h-147q-34 0 -54.5 20.5t-20.5 54.5z" />
    <glyph glyph-name="obreve" unicode="&#x14f;" 
d="M272 515q55 0 102 -20t81.5 -55t54 -83.5t19.5 -105.5t-19.5 -105.5t-54 -84.5t-81.5 -56t-102 -20t-102 20t-81.5 56t-54 84.5t-19.5 105.5t19.5 105.5t54 83.5t81.5 55t102 20zM273 74q33 0 61.5 13.5t49.5 37.5t33 56.5t12 69.5q0 38 -12 70t-33 55t-49.5 36.5
t-61.5 13.5q-34 0 -63 -13.5t-50 -36.5t-33 -55t-12 -70q0 -37 12 -69.5t33 -56.5t50 -37.5t63 -13.5zM130 684v38h75v-42h147v42h75v-38q0 -34 -20.5 -54.5t-54.5 -20.5h-147q-34 0 -54.5 20.5t-20.5 54.5z" />
    <glyph glyph-name="Ohungarumlaut" unicode="&#x150;" horiz-adv-x="741" 
d="M18 350q0 78 27 145t74 116t111.5 76.5t140.5 27.5q75 0 139.5 -27.5t112 -76.5t74 -116t26.5 -145t-26.5 -145t-73.5 -116t-111.5 -76.5t-140.5 -27.5t-140.5 27.5t-111.5 76.5t-74 116t-27 145zM371 74q54 0 100.5 21t80 58t53 87.5t19.5 109.5t-19 109.5t-53 87
t-80.5 57.5t-100.5 21t-100.5 -21t-80 -58t-53 -87.5t-19.5 -109.5t19.5 -109.5t53 -87t80 -57.5t100.5 -21zM257 749h-90l74 106h102zM488 749h-90l74 106h102z" />
    <glyph glyph-name="ohungarumlaut" unicode="&#x151;" 
d="M272 515q55 0 102 -20t81.5 -55t54 -83.5t19.5 -105.5t-19.5 -105.5t-54 -84.5t-81.5 -56t-102 -20t-102 20t-81.5 56t-54 84.5t-19.5 105.5t19.5 105.5t54 83.5t81.5 55t102 20zM273 74q33 0 61.5 13.5t49.5 37.5t33 56.5t12 69.5q0 38 -12 70t-33 55t-49.5 36.5
t-61.5 13.5q-34 0 -63 -13.5t-50 -36.5t-33 -55t-12 -70q0 -37 12 -69.5t33 -56.5t50 -37.5t63 -13.5zM190 594h-90l74 106h102zM421 594h-90l74 106h102z" />
    <glyph glyph-name="OE" unicode="&#x152;" horiz-adv-x="997" 
d="M14 350q0 78 21.5 145t59.5 116t89.5 76.5t112.5 27.5q54 0 101 -22.5t84 -62.5v69h493v-89h-393v-204h303v-92h-303v-226h395v-89h-495v71q-37 -41 -84 -63t-101 -22q-61 0 -112.5 27.5t-89.5 76.5t-59.5 116t-21.5 145zM297 101q39 0 72.5 19t57.5 52.5t38 79t14 98.5
t-14 98.5t-38 78.5t-57.5 52t-72.5 19t-72.5 -19t-58 -52.5t-38.5 -79t-14 -98.5t14 -98.5t38.5 -78.5t58 -52t72.5 -19z" />
    <glyph glyph-name="oe" unicode="&#x153;" horiz-adv-x="942" 
d="M263 515q55 0 102 -20t81.5 -55t54 -83.5t19.5 -105.5t-19.5 -105.5t-54 -84.5t-81.5 -56t-102 -20t-102 20t-81.5 56t-54 84.5t-19.5 105.5t19.5 105.5t54 83.5t81.5 55t102 20zM264 74q33 0 61.5 13.5t49.5 37.5t33 56.5t12 69.5q0 38 -12 70t-33 55t-49.5 36.5
t-61.5 13.5q-34 0 -63 -13.5t-50 -36.5t-33 -55t-12 -70q0 -37 12 -69.5t33 -56.5t50 -37.5t63 -13.5zM420 251q0 57 19.5 105.5t54 83.5t81.5 55t102 20t102 -20t81.5 -55t54 -83.5t19.5 -105.5q0 -11 -0.5 -20.5t-1.5 -20.5h-408q12 -60 53.5 -98t99.5 -38q46 0 81.5 24
t55.5 64h107q-13 -39 -36.5 -72t-55 -56t-70 -36t-82.5 -13q-55 0 -102 20t-81.5 56t-54 84.5t-19.5 105.5zM830 297q-12 57 -52.5 93t-99.5 36t-99.5 -36t-53.5 -93h305z" />
    <glyph glyph-name="Racute" unicode="&#x154;" horiz-adv-x="607" 
d="M355 700q45 0 81.5 -17t63 -45.5t40.5 -65.5t14 -78q0 -37 -12 -72.5t-33.5 -65t-51.5 -51.5t-67 -32l191 -273h-120l-186 266h-127v-266h-100v700h307zM148 355h187q25 0 46.5 12t38 31t26 44t9.5 50q0 23 -7.5 44t-21.5 38t-33 27t-43 10h-202v-256zM306 740h-90
l74 106h102z" />
    <glyph glyph-name="racute" unicode="&#x155;" horiz-adv-x="352" 
d="M150 500l-1 -80q23 40 58 60t86 20h50v-90h-49q-30 0 -56.5 -9.5t-46 -28.5t-30.5 -47t-11 -66v-259h-100v500h100zM196 594h-90l74 106h102z" />
    <glyph glyph-name="uni0156" unicode="&#x156;" horiz-adv-x="607" 
d="M362 700q45 0 81.5 -17t63 -45.5t40.5 -65.5t14 -78q0 -37 -12 -72.5t-33.5 -65t-51.5 -51.5t-67 -32l191 -273h-120l-186 266h-127v-266h-100v700h307zM155 355h187q25 0 46.5 12t38 31t26 44t9.5 50q0 23 -7.5 44t-21.5 38t-33 27t-43 10h-202v-256zM342 -191h-90
l74 106h102z" />
    <glyph glyph-name="uni0157" unicode="&#x157;" horiz-adv-x="358" 
d="M152 500l-1 -80q23 40 58 60t86 20h50v-90h-49q-30 0 -56.5 -9.5t-46 -28.5t-30.5 -47t-11 -66v-259h-100v500h100zM98 -191h-90l74 106h102z" />
    <glyph glyph-name="Rcaron" unicode="&#x158;" horiz-adv-x="607" 
d="M355 700q45 0 81.5 -17t63 -45.5t40.5 -65.5t14 -78q0 -37 -12 -72.5t-33.5 -65t-51.5 -51.5t-67 -32l191 -273h-120l-186 266h-127v-266h-100v700h307zM148 355h187q25 0 46.5 12t38 31t26 44t9.5 50q0 23 -7.5 44t-21.5 38t-33 27t-43 10h-202v-256zM179 846h81l47 -58
l47 58h74l-73 -106h-102z" />
    <glyph glyph-name="rcaron" unicode="&#x159;" horiz-adv-x="368" 
d="M158 500l-1 -80q23 40 58 60t86 20h50v-90h-49q-30 0 -56.5 -9.5t-46 -28.5t-30.5 -47t-11 -66v-259h-100v500h100zM67 733h81l47 -58l47 58h74l-73 -106h-102z" />
    <glyph glyph-name="Sacute" unicode="&#x15a;" horiz-adv-x="569" 
d="M17 219h100q0 -27 14.5 -53t39 -46.5t57.5 -33t70 -12.5q78 0 116.5 27.5t38.5 75.5q0 35 -11 55.5t-34 33.5t-60 23.5t-88 25.5q-21 6 -58.5 16.5t-74 31.5t-63.5 56.5t-27 93.5q0 48 22.5 85.5t56.5 63.5t75.5 39.5t78.5 13.5q57 0 107.5 -14t88 -41.5t59 -67.5
t21.5 -92h-100q0 56 -40 90.5t-123 34.5q-29 0 -55.5 -7t-46.5 -21t-32.5 -36.5t-12.5 -52.5q1 -30 21.5 -50t49.5 -33t61 -21t56 -15q51 -14 93 -31t72 -40t46.5 -55t16.5 -76q0 -57 -20.5 -95.5t-54.5 -62.5t-79 -34t-95 -10t-101 14.5t-92 43.5t-67 73t-26 103zM287 740
h-90l74 106h102z" />
    <glyph glyph-name="sacute" unicode="&#x15b;" horiz-adv-x="463" 
d="M12 155h100q0 -15 9 -29.5t25.5 -26t40.5 -18.5t54 -7q109 0 109 58q0 17 -12 27.5t-32.5 18.5t-47.5 14t-56 14q-39 11 -71 24t-55 30.5t-35.5 41t-12.5 54.5q0 40 18.5 69.5t46.5 49.5t61.5 30t64.5 10q50 0 91.5 -11t71 -31t46 -49.5t16.5 -67.5h-100q0 30 -33.5 50
t-84.5 20q-44 0 -71 -17t-27 -49q0 -15 8.5 -25.5t22.5 -18.5t32.5 -14.5t38.5 -12.5q46 -13 86 -25t69.5 -29t46.5 -42t17 -66q0 -43 -16.5 -70.5t-44.5 -43.5t-64.5 -22t-77.5 -6t-82.5 10.5t-75.5 31.5t-55 53t-21 75zM252 594h-90l74 106h102z" />
    <glyph glyph-name="Scircumflex" unicode="&#x15c;" horiz-adv-x="569" 
d="M17 219h100q0 -27 14.5 -53t39 -46.5t57.5 -33t70 -12.5q78 0 116.5 27.5t38.5 75.5q0 35 -11 55.5t-34 33.5t-60 23.5t-88 25.5q-21 6 -58.5 16.5t-74 31.5t-63.5 56.5t-27 93.5q0 48 22.5 85.5t56.5 63.5t75.5 39.5t78.5 13.5q57 0 107.5 -14t88 -41.5t59 -67.5
t21.5 -92h-100q0 56 -40 90.5t-123 34.5q-29 0 -55.5 -7t-46.5 -21t-32.5 -36.5t-12.5 -52.5q1 -30 21.5 -50t49.5 -33t61 -21t56 -15q51 -14 93 -31t72 -40t46.5 -55t16.5 -76q0 -57 -20.5 -95.5t-54.5 -62.5t-79 -34t-95 -10t-101 14.5t-92 43.5t-67 73t-26 103zM157 740
l74 106h107l74 -106h-81l-46 58l-47 -58h-81z" />
    <glyph glyph-name="scircumflex" unicode="&#x15d;" horiz-adv-x="463" 
d="M12 155h100q0 -15 9 -29.5t25.5 -26t40.5 -18.5t54 -7q109 0 109 58q0 17 -12 27.5t-32.5 18.5t-47.5 14t-56 14q-39 11 -71 24t-55 30.5t-35.5 41t-12.5 54.5q0 40 18.5 69.5t46.5 49.5t61.5 30t64.5 10q50 0 91.5 -11t71 -31t46 -49.5t16.5 -67.5h-100q0 30 -33.5 50
t-84.5 20q-44 0 -71 -17t-27 -49q0 -15 8.5 -25.5t22.5 -18.5t32.5 -14.5t38.5 -12.5q46 -13 86 -25t69.5 -29t46.5 -42t17 -66q0 -43 -16.5 -70.5t-44.5 -43.5t-64.5 -22t-77.5 -6t-82.5 10.5t-75.5 31.5t-55 53t-21 75zM131 627l74 106h107l74 -106h-81l-46 58l-47 -58
h-81z" />
    <glyph glyph-name="Scedilla" unicode="&#x15e;" horiz-adv-x="569" 
d="M19 219h100q0 -27 14.5 -53t39 -46.5t57.5 -33t70 -12.5q78 0 116.5 27.5t38.5 75.5q0 35 -11 55.5t-34 33.5t-60 23.5t-88 25.5q-21 6 -58.5 16.5t-74 31.5t-63.5 56.5t-27 93.5q0 48 22.5 85.5t56.5 63.5t75.5 39.5t78.5 13.5q57 0 107.5 -14t88 -41.5t59 -67.5
t21.5 -92h-100q0 56 -40 90.5t-123 34.5q-29 0 -55.5 -7t-46.5 -21t-32.5 -36.5t-12.5 -52.5q1 -30 21.5 -50t49.5 -33t61 -21t56 -15q51 -14 93 -31t72 -40t46.5 -55t16.5 -76q0 -57 -20.5 -95.5t-54.5 -62.5t-79 -34t-95 -10t-101 14.5t-92 43.5t-67 73t-26 103zM257 -232
v60q20 -2 36 0q13 2 24 10t11 26q0 29 -17.5 35t-51.5 6v95h62l1 -50q21 -4 38 -14q14 -8 25.5 -23.5t11.5 -41.5q0 -33 -11.5 -53t-31 -31.5t-45 -15t-52.5 -3.5z" />
    <glyph glyph-name="scedilla" unicode="&#x15f;" horiz-adv-x="463" 
d="M12 155h100q0 -15 9 -29.5t25.5 -26t40.5 -18.5t54 -7q109 0 109 58q0 17 -12 27.5t-32.5 18.5t-47.5 14t-56 14q-39 11 -71 24t-55 30.5t-35.5 41t-12.5 54.5q0 40 18.5 69.5t46.5 49.5t61.5 30t64.5 10q50 0 91.5 -11t71 -31t46 -49.5t16.5 -67.5h-100q0 30 -33.5 50
t-84.5 20q-44 0 -71 -17t-27 -49q0 -15 8.5 -25.5t22.5 -18.5t32.5 -14.5t38.5 -12.5q46 -13 86 -25t69.5 -29t46.5 -42t17 -66q0 -43 -16.5 -70.5t-44.5 -43.5t-64.5 -22t-77.5 -6t-82.5 10.5t-75.5 31.5t-55 53t-21 75zM205 -232v60q20 -2 36 0q13 2 24 10t11 26
q0 29 -17.5 35t-51.5 6v95h62l1 -50q21 -4 38 -14q14 -8 25.5 -23.5t11.5 -41.5q0 -33 -11.5 -53t-31 -31.5t-45 -15t-52.5 -3.5z" />
    <glyph glyph-name="Scaron" unicode="&#x160;" horiz-adv-x="569" 
d="M17 219h100q0 -27 14.5 -53t39 -46.5t57.5 -33t70 -12.5q78 0 116.5 27.5t38.5 75.5q0 35 -11 55.5t-34 33.5t-60 23.5t-88 25.5q-21 6 -58.5 16.5t-74 31.5t-63.5 56.5t-27 93.5q0 48 22.5 85.5t56.5 63.5t75.5 39.5t78.5 13.5q57 0 107.5 -14t88 -41.5t59 -67.5
t21.5 -92h-100q0 56 -40 90.5t-123 34.5q-29 0 -55.5 -7t-46.5 -21t-32.5 -36.5t-12.5 -52.5q1 -30 21.5 -50t49.5 -33t61 -21t56 -15q51 -14 93 -31t72 -40t46.5 -55t16.5 -76q0 -57 -20.5 -95.5t-54.5 -62.5t-79 -34t-95 -10t-101 14.5t-92 43.5t-67 73t-26 103zM160 846
h81l47 -58l47 58h74l-73 -106h-102z" />
    <glyph glyph-name="scaron" unicode="&#x161;" horiz-adv-x="463" 
d="M12 155h100q0 -15 9 -29.5t25.5 -26t40.5 -18.5t54 -7q109 0 109 58q0 17 -12 27.5t-32.5 18.5t-47.5 14t-56 14q-39 11 -71 24t-55 30.5t-35.5 41t-12.5 54.5q0 40 18.5 69.5t46.5 49.5t61.5 30t64.5 10q50 0 91.5 -11t71 -31t46 -49.5t16.5 -67.5h-100q0 30 -33.5 50
t-84.5 20q-44 0 -71 -17t-27 -49q0 -15 8.5 -25.5t22.5 -18.5t32.5 -14.5t38.5 -12.5q46 -13 86 -25t69.5 -29t46.5 -42t17 -66q0 -43 -16.5 -70.5t-44.5 -43.5t-64.5 -22t-77.5 -6t-82.5 10.5t-75.5 31.5t-55 53t-21 75zM135 733h81l47 -58l47 58h74l-73 -106h-102z" />
    <glyph glyph-name="uni0162" unicode="&#x162;" horiz-adv-x="612" 
d="M19 700h578v-89h-239v-611h-100v611h-239v89zM300 2h63q-39 -39 -55.5 -67.5t-16.5 -54.5q0 -19 14 -28t31 -14q19 -5 44 -5l1 -60q-32 0 -62 2.5t-53.5 12.5t-37.5 30t-14 55q0 26 13.5 49.5t29.5 40.5q19 21 43 39z" />
    <glyph glyph-name="uni0163" unicode="&#x163;" horiz-adv-x="273" 
d="M10 500h58v100h100v-100h84v-89h-84v-317h73v-94h-99q-34 0 -54 20.5t-20 54.5v336h-58v89zM178 0h63q-39 -39 -55.5 -67.5t-16.5 -54.5q0 -19 14 -28t31 -14q19 -5 44 -5l1 -60q-32 0 -62 2.5t-53.5 12.5t-37.5 30t-14 55q0 26 13.5 49.5t29.5 40.5q19 21 43 39z" />
    <glyph glyph-name="Tcaron" unicode="&#x164;" horiz-adv-x="612" 
d="M17 700h578v-89h-239v-611h-100v611h-239v89zM182 846h81l47 -58l47 58h74l-73 -106h-102z" />
    <glyph glyph-name="tcaron" unicode="&#x165;" horiz-adv-x="372" 
d="M4 500h58v100h100v-100h84v-89h-84v-317h73v-94h-99q-34 0 -54 20.5t-20 54.5v336h-58v89zM371 594h-74l73 106h86z" />
    <glyph glyph-name="Tbar" unicode="&#x166;" horiz-adv-x="612" 
d="M19 700h578v-89h-239v-611h-100v611h-239v89zM60 424h500v-71h-500v71z" />
    <glyph glyph-name="tbar" unicode="&#x167;" horiz-adv-x="290" 
d="M18 500h58v100h100v-100h84v-89h-84v-317h73v-94h-99q-34 0 -54 20.5t-20 54.5v336h-58v89zM15.9297 346.342h241.211v-87.1025h-241.211v87.1025z" />
    <glyph glyph-name="Utilde" unicode="&#x168;" horiz-adv-x="664" 
d="M142 700v-421q0 -49 14.5 -87t40 -64.5t60.5 -40t76 -13.5t75.5 13.5t60 40t40 64.5t14.5 87v421h100v-421q0 -64 -22 -118t-61 -93t-92 -61t-115 -22t-115.5 22t-92.5 61t-61 93t-22 118v421h100zM177 749v65q13 -4 28 -6.5t35 -2.5q31 0 53.5 6t43 13t41 13t47.5 6
q19 0 33.5 -3t28.5 -8v-64q-14 5 -28.5 8t-33.5 3q-27 0 -47.5 -6t-41 -13.5t-43 -13.5t-53.5 -6q-20 0 -35 2.5t-28 6.5z" />
    <glyph glyph-name="utilde" unicode="&#x169;" horiz-adv-x="553" 
d="M127 500v-278q0 -76 32 -109.5t97 -33.5q75 0 113.5 36t39.5 114v271h100v-500h-100v62q-26 -41 -68.5 -59.5t-101.5 -18.5q-53 0 -92.5 16t-66 43t-40 61.5t-13.5 71.5v324h100zM127 590v65q13 -4 28 -6.5t35 -2.5q31 0 53.5 6t43 13t41 13t47.5 6q19 0 33.5 -3t28.5 -8
v-64q-14 5 -28.5 8t-33.5 3q-27 0 -47.5 -6t-41 -13.5t-43 -13.5t-53.5 -6q-20 0 -35 2.5t-28 6.5z" />
    <glyph glyph-name="Umacron" unicode="&#x16a;" horiz-adv-x="664" 
d="M142 700v-421q0 -49 14.5 -87t40 -64.5t60.5 -40t76 -13.5t75.5 13.5t60 40t40 64.5t14.5 87v421h100v-421q0 -64 -22 -118t-61 -93t-92 -61t-115 -22t-115.5 22t-92.5 61t-61 93t-22 118v421h100zM83 826h500v-71h-500v71z" />
    <glyph glyph-name="umacron" unicode="&#x16b;" horiz-adv-x="553" 
d="M127 500v-278q0 -76 32 -109.5t97 -33.5q75 0 113.5 36t39.5 114v271h100v-500h-100v62q-26 -41 -68.5 -59.5t-101.5 -18.5q-53 0 -92.5 16t-66 43t-40 61.5t-13.5 71.5v324h100zM54.4141 655h426.789v-71h-426.789v71z" />
    <glyph glyph-name="Ubreve" unicode="&#x16c;" horiz-adv-x="664" 
d="M142 700v-421q0 -49 14.5 -87t40 -64.5t60.5 -40t76 -13.5t75.5 13.5t60 40t40 64.5t14.5 87v421h100v-421q0 -64 -22 -118t-61 -93t-92 -61t-115 -22t-115.5 22t-92.5 61t-61 93t-22 118v421h100zM184 811v38h75v-42h147v42h75v-38q0 -34 -20.5 -54.5t-54.5 -20.5h-147
q-34 0 -54.5 20.5t-20.5 54.5z" />
    <glyph glyph-name="ubreve" unicode="&#x16d;" horiz-adv-x="553" 
d="M127 500v-278q0 -76 32 -109.5t97 -33.5q75 0 113.5 36t39.5 114v271h100v-500h-100v62q-26 -41 -68.5 -59.5t-101.5 -18.5q-53 0 -92.5 16t-66 43t-40 61.5t-13.5 71.5v324h100zM134 684v38h75v-42h147v42h75v-38q0 -34 -20.5 -54.5t-54.5 -20.5h-147q-34 0 -54.5 20.5
t-20.5 54.5z" />
    <glyph glyph-name="Uring" unicode="&#x16e;" horiz-adv-x="664" 
d="M142 700v-421q0 -49 14.5 -87t40 -64.5t60.5 -40t76 -13.5t75.5 13.5t60 40t40 64.5t14.5 87v421h100v-421q0 -64 -22 -118t-61 -93t-92 -61t-115 -22t-115.5 22t-92.5 61t-61 93t-22 118v421h100zM228 822q0 21 8 39.5t22.5 33t33.5 22.5t40 8t39.5 -8t33 -22.5
t22.5 -33t8 -39.5t-8 -39.5t-22.5 -33t-33 -22.5t-39.5 -8t-40 8t-33.5 22.5t-22.5 33t-8 39.5zM332 767q23 0 39 16t16 39t-16 39t-39 16t-39.5 -16t-16.5 -39t16.5 -39t39.5 -16z" />
    <glyph glyph-name="uring" unicode="&#x16f;" horiz-adv-x="553" 
d="M127 500v-278q0 -76 32 -109.5t97 -33.5q75 0 113.5 36t39.5 114v271h100v-500h-100v62q-26 -41 -68.5 -59.5t-101.5 -18.5q-53 0 -92.5 16t-66 43t-40 61.5t-13.5 71.5v324h100zM180 649q0 21 8 39.5t22.5 33t33.5 22.5t40 8t39.5 -8t33 -22.5t22.5 -33t8 -39.5
t-8 -39.5t-22.5 -33t-33 -22.5t-39.5 -8t-40 8t-33.5 22.5t-22.5 33t-8 39.5zM284 594q23 0 39 16t16 39t-16 39t-39 16t-39.5 -16t-16.5 -39t16.5 -39t39.5 -16z" />
    <glyph glyph-name="Uhungarumlaut" unicode="&#x170;" horiz-adv-x="664" 
d="M142 700v-421q0 -49 14.5 -87t40 -64.5t60.5 -40t76 -13.5t75.5 13.5t60 40t40 64.5t14.5 87v421h100v-421q0 -64 -22 -118t-61 -93t-92 -61t-115 -22t-115.5 22t-92.5 61t-61 93t-22 118v421h100zM218 749h-90l74 106h102zM449 749h-90l74 106h102z" />
    <glyph glyph-name="uhungarumlaut" unicode="&#x171;" horiz-adv-x="553" 
d="M127 500v-278q0 -76 32 -109.5t97 -33.5q75 0 113.5 36t39.5 114v271h100v-500h-100v62q-26 -41 -68.5 -59.5t-101.5 -18.5q-53 0 -92.5 16t-66 43t-40 61.5t-13.5 71.5v324h100zM195 594h-90l74 106h102zM426 594h-90l74 106h102z" />
    <glyph glyph-name="Uogonek" unicode="&#x172;" horiz-adv-x="664" 
d="M144 700v-421q0 -49 14.5 -87t40 -64.5t60.5 -40t76 -13.5t75.5 13.5t60 40t40 64.5t14.5 87v421h100v-421q0 -64 -22 -118t-61 -93t-92 -61t-115 -22t-115.5 22t-92.5 61t-61 93t-22 118v421h100zM485 74h63q-39 -39 -55.5 -67.5t-16.5 -54.5q0 -19 14 -28t31 -14
q19 -5 44 -5l1 -60q-32 0 -62 2.5t-53.5 12.5t-37.5 30t-14 55q0 26 13.5 49.5t29.5 40.5q19 21 43 39z" />
    <glyph glyph-name="uogonek" unicode="&#x173;" horiz-adv-x="552" 
d="M127 500v-278q0 -76 32 -109.5t97 -33.5q75 0 113.5 36t39.5 114v271h100v-500h-100v62q-26 -41 -68.5 -59.5t-101.5 -18.5q-53 0 -92.5 16t-66 43t-40 61.5t-13.5 71.5v324h100zM435 0h63q-39 -39 -55.5 -67.5t-16.5 -54.5q0 -19 14 -28t31 -14q19 -5 44 -5l1 -60
q-32 0 -62 2.5t-53.5 12.5t-37.5 30t-14 55q0 26 13.5 49.5t29.5 40.5q19 21 43 39z" />
    <glyph glyph-name="Wcircumflex" unicode="&#x174;" horiz-adv-x="942" 
d="M21 700h99l170 -541l134 541h100l137 -539l162 539h100l-209 -700h-112l-128 501l-123 -501h-111zM343 740l74 106h107l74 -106h-81l-46 58l-47 -58h-81z" />
    <glyph glyph-name="wcircumflex" unicode="&#x175;" horiz-adv-x="770" 
d="M13 500h97l124 -377l104 377h97l108 -375l115 375h98l-154 -500h-121l-93 326l-89 -326h-121zM284 627l74 106h107l74 -106h-81l-46 58l-47 -58h-81z" />
    <glyph glyph-name="Ycircumflex" unicode="&#x176;" horiz-adv-x="674" 
d="M31 700h117l193 -300l192 300h111l-253 -388v-312h-100v312zM209 740l74 106h107l74 -106h-81l-46 58l-47 -58h-81z" />
    <glyph glyph-name="ycircumflex" unicode="&#x177;" horiz-adv-x="567" 
d="M30 231v269h100v-269q0 -77 34.5 -117t107.5 -40q155 0 155 154v272h100v-675q0 -34 -20.5 -54.5t-54.5 -20.5h-350v89h325v217q-24 -38 -65.5 -55t-107.5 -17q-51 0 -92.5 19t-70.5 52.5t-45 78.5t-16 97zM182 627l74 106h107l74 -106h-81l-46 58l-47 -58h-81z" />
    <glyph glyph-name="Ydieresis" unicode="&#x178;" horiz-adv-x="674" 
d="M31 700h117l193 -300l192 300h111l-253 -388v-312h-100v312zM194 794q0 23 16 39t39 16t39 -16t16 -39q0 -22 -16 -38t-39 -16t-39 16t-16 38zM426 849q23 0 39 -16t16 -39q0 -22 -16 -38t-39 -16t-38.5 16t-15.5 38q0 23 15.5 39t38.5 16z" />
    <glyph glyph-name="Zacute" unicode="&#x179;" horiz-adv-x="644" 
d="M32 611v89h580v-89l-455 -522h455v-89h-580v89l456 522h-456zM324 740h-90l74 106h102z" />
    <glyph glyph-name="zacute" unicode="&#x17a;" horiz-adv-x="518" 
d="M37 0v89l337 322h-337v89h457v-89l-337 -322h337v-89h-457zM279 594h-90l74 106h102z" />
    <glyph glyph-name="Zdotaccent" unicode="&#x17b;" horiz-adv-x="644" 
d="M32 611v89h580v-89l-455 -522h455v-89h-580v89l456 522h-456zM256 802q0 27 19.5 46.5t46.5 19.5t46.5 -19.5t19.5 -46.5t-19.5 -46.5t-46.5 -19.5t-46.5 19.5t-19.5 46.5z" />
    <glyph glyph-name="zdotaccent" unicode="&#x17c;" horiz-adv-x="518" 
d="M37 0v89l337 322h-337v89h457v-89l-337 -322h337v-89h-457zM203 649q0 27 19.5 46.5t46.5 19.5t46.5 -19.5t19.5 -46.5t-19.5 -46.5t-46.5 -19.5t-46.5 19.5t-19.5 46.5z" />
    <glyph glyph-name="Zcaron" unicode="&#x17d;" horiz-adv-x="644" 
d="M32 611v89h580v-89l-455 -522h455v-89h-580v89l456 522h-456zM198 846h81l47 -58l47 58h74l-73 -106h-102z" />
    <glyph glyph-name="zcaron" unicode="&#x17e;" horiz-adv-x="518" 
d="M37 0v89l337 322h-337v89h457v-89l-337 -322h337v-89h-457zM135 733h81l47 -58l47 58h74l-73 -106h-102z" />
    <glyph glyph-name="longs" unicode="&#x17f;" horiz-adv-x="338" 
d="M253 700v-89h-75v-611h-100v700h175z" />
    <glyph glyph-name="florin" unicode="&#x192;" horiz-adv-x="282" 
d="M2 -250v89h75v572h-52v89h52v125q0 34 20.5 54.5t54.5 20.5h100v-89h-75v-111h74v-89h-74v-586q0 -34 -20.5 -54.5t-54.5 -20.5h-100z" />
    <glyph glyph-name="uni0218" unicode="&#x218;" horiz-adv-x="569" 
d="M19 219h100q0 -27 14.5 -53t39 -46.5t57.5 -33t70 -12.5q78 0 116.5 27.5t38.5 75.5q0 35 -11 55.5t-34 33.5t-60 23.5t-88 25.5q-21 6 -58.5 16.5t-74 31.5t-63.5 56.5t-27 93.5q0 48 22.5 85.5t56.5 63.5t75.5 39.5t78.5 13.5q57 0 107.5 -14t88 -41.5t59 -67.5
t21.5 -92h-100q0 56 -40 90.5t-123 34.5q-29 0 -55.5 -7t-46.5 -21t-32.5 -36.5t-12.5 -52.5q1 -30 21.5 -50t49.5 -33t61 -21t56 -15q51 -14 93 -31t72 -40t46.5 -55t16.5 -76q0 -57 -20.5 -95.5t-54.5 -62.5t-79 -34t-95 -10t-101 14.5t-92 43.5t-67 73t-26 103zM322 -191
h-90l74 106h102z" />
    <glyph glyph-name="uni0219" unicode="&#x219;" horiz-adv-x="463" 
d="M12 155h100q0 -15 9 -29.5t25.5 -26t40.5 -18.5t54 -7q109 0 109 58q0 17 -12 27.5t-32.5 18.5t-47.5 14t-56 14q-39 11 -71 24t-55 30.5t-35.5 41t-12.5 54.5q0 40 18.5 69.5t46.5 49.5t61.5 30t64.5 10q50 0 91.5 -11t71 -31t46 -49.5t16.5 -67.5h-100q0 30 -33.5 50
t-84.5 20q-44 0 -71 -17t-27 -49q0 -15 8.5 -25.5t22.5 -18.5t32.5 -14.5t38.5 -12.5q46 -13 86 -25t69.5 -29t46.5 -42t17 -66q0 -43 -16.5 -70.5t-44.5 -43.5t-64.5 -22t-77.5 -6t-82.5 10.5t-75.5 31.5t-55 53t-21 75zM270 -191h-90l74 106h102z" />
    <glyph glyph-name="uni021A" unicode="&#x21a;" horiz-adv-x="612" 
d="M19 700h578v-89h-239v-611h-100v611h-239v89zM344 -191h-90l74 106h102z" />
    <glyph glyph-name="uni021B" unicode="&#x21b;" horiz-adv-x="278" 
d="M12 500h58v100h100v-100h84v-89h-84v-317h73v-94h-99q-34 0 -54 20.5t-20 54.5v336h-58v89zM177 -191h-90l74 106h102z" />
    <glyph glyph-name="uni0237" unicode="&#x237;" horiz-adv-x="253" 
d="M31 -250v89h75v661h100v-675q0 -34 -20.5 -54.5t-54.5 -20.5h-100z" />
    <glyph glyph-name="circumflex" unicode="&#x2c6;" horiz-adv-x="428" 
d="M86 627l74 106h107l74 -106h-81l-46 58l-47 -58h-81z" />
    <glyph glyph-name="caron" unicode="&#x2c7;" horiz-adv-x="304" 
d="M28 733h81l47 -58l47 58h74l-73 -106h-102z" />
    <glyph glyph-name="uni02C9" unicode="&#x2c9;" horiz-adv-x="388" 
d="M46 680h297v-71h-297v71z" />
    <glyph glyph-name="breve" unicode="&#x2d8;" horiz-adv-x="403" 
d="M76 684v38h75v-42h147v42h75v-38q0 -34 -20.5 -54.5t-54.5 -20.5h-147q-34 0 -54.5 20.5t-20.5 54.5z" />
    <glyph glyph-name="dotaccent" unicode="&#x2d9;" horiz-adv-x="239" 
d="M59 649q0 27 19.5 46.5t46.5 19.5t46.5 -19.5t19.5 -46.5t-19.5 -46.5t-46.5 -19.5t-46.5 19.5t-19.5 46.5z" />
    <glyph glyph-name="ring" unicode="&#x2da;" horiz-adv-x="314" 
d="M49 649q0 21 8 39.5t22.5 33t33.5 22.5t40 8t39.5 -8t33 -22.5t22.5 -33t8 -39.5t-8 -39.5t-22.5 -33t-33 -22.5t-39.5 -8t-40 8t-33.5 22.5t-22.5 33t-8 39.5zM153 594q23 0 39 16t16 39t-16 39t-39 16t-39.5 -16t-16.5 -39t16.5 -39t39.5 -16z" />
    <glyph glyph-name="ogonek" unicode="&#x2db;" horiz-adv-x="261" 
d="M140 0h63q-39 -39 -55.5 -67.5t-16.5 -54.5q0 -19 14 -28t31 -14q19 -5 44 -5l1 -60q-32 0 -62 2.5t-53.5 12.5t-37.5 30t-14 55q0 26 13.5 49.5t29.5 40.5q19 21 43 39z" />
    <glyph glyph-name="tilde" unicode="&#x2dc;" horiz-adv-x="458" 
d="M82 590v65q13 -4 28 -6.5t35 -2.5q31 0 53.5 6t43 13t41 13t47.5 6q19 0 33.5 -3t28.5 -8v-64q-14 5 -28.5 8t-33.5 3q-27 0 -47.5 -6t-41 -13.5t-43 -13.5t-53.5 -6q-20 0 -35 2.5t-28 6.5z" />
    <glyph glyph-name="hungarumlaut" unicode="&#x2dd;" horiz-adv-x="591" 
d="M203 594h-90l74 106h102zM434 594h-90l74 106h102z" />
    <glyph glyph-name="uni0326" unicode="&#x326;" horiz-adv-x="369" 
d="M187 -191h-90l74 106h102z" />
    <glyph glyph-name="uni0394" unicode="&#x394;" horiz-adv-x="678" 
d="M288 700h95l269 -700h-626zM519 89l-183 483l-178 -483h361z" />
    <glyph glyph-name="uni03A9" unicode="&#x3a9;" horiz-adv-x="828" 
d="M144 93q-39 48 -61.5 109t-22.5 133q0 78 27 145t74 115.5t112 76.5t140 28q76 0 140.5 -27.5t112 -76.5t74 -116t26.5 -145q0 -72 -22 -133t-62 -109h124v-93h-247q-4 -2 -5 -2v104q52 36 82 97t30 136q0 59 -19 109.5t-53 87t-80 57.5t-100 21t-100.5 -21t-80.5 -58
t-53.5 -87.5t-19.5 -109.5q0 -75 30.5 -135.5t83.5 -96.5v-105l-6 3h-247v93h123z" />
    <glyph glyph-name="uni03BC" unicode="&#x3bc;" horiz-adv-x="623" 
d="M169 500v-288q0 -61 32 -97t97 -36q75 0 113.5 35.5t39.5 113.5v272h100v-500h-100v58q-24 -39 -63.5 -56.5t-96.5 -17.5q-36 0 -66.5 7.5t-55.5 21.5v-263h-100v750h100z" />
    <glyph glyph-name="pi" unicode="&#x3c0;" horiz-adv-x="659" 
d="M571 500v-89h-92v-322h40v-89h-140v411h-103v-411h-100v411h-83v89h478z" />
    <glyph glyph-name="Wgrave" unicode="&#x1e80;" horiz-adv-x="942" 
d="M21 700h99l170 -541l134 541h100l137 -539l162 539h100l-209 -700h-112l-128 501l-123 -501h-111zM383 851h102l74 -106h-90z" />
    <glyph glyph-name="wgrave" unicode="&#x1e81;" horiz-adv-x="770" 
d="M13 500h97l124 -377l104 377h97l108 -375l115 375h98l-154 -500h-121l-93 326l-89 -326h-121zM315 700h102l74 -106h-90z" />
    <glyph glyph-name="Wacute" unicode="&#x1e82;" horiz-adv-x="942" 
d="M21 700h99l170 -541l134 541h100l137 -539l162 539h100l-209 -700h-112l-128 501l-123 -501h-111zM473 740h-90l74 106h102z" />
    <glyph glyph-name="wacute" unicode="&#x1e83;" horiz-adv-x="770" 
d="M13 500h97l124 -377l104 377h97l108 -375l115 375h98l-154 -500h-121l-93 326l-89 -326h-121zM405 594h-90l74 106h102z" />
    <glyph glyph-name="Wdieresis" unicode="&#x1e84;" horiz-adv-x="942" 
d="M21 700h99l170 -541l134 541h100l137 -539l162 539h100l-209 -700h-112l-128 501l-123 -501h-111zM328 794q0 23 16 39t39 16t39 -16t16 -39q0 -22 -16 -38t-39 -16t-39 16t-16 38zM560 849q23 0 39 -16t16 -39q0 -22 -16 -38t-39 -16t-38.5 16t-15.5 38q0 23 15.5 39
t38.5 16z" />
    <glyph glyph-name="wdieresis" unicode="&#x1e85;" horiz-adv-x="770" 
d="M13 500h97l124 -377l104 377h97l108 -375l115 375h98l-154 -500h-121l-93 326l-89 -326h-121zM279 660q0 23 16 39t39 16t39 -16t16 -39q0 -22 -16 -38t-39 -16t-39 16t-16 38zM511 715q23 0 39 -16t16 -39q0 -22 -16 -38t-39 -16t-38.5 16t-15.5 38q0 23 15.5 39
t38.5 16z" />
    <glyph glyph-name="endash" unicode="&#x2013;" horiz-adv-x="508" 
d="M48 255h396v-79h-396v79z" />
    <glyph glyph-name="emdash" unicode="&#x2014;" horiz-adv-x="911" 
d="M41 255h819v-79h-819v79z" />
    <glyph glyph-name="quoteleft" unicode="&#x2018;" horiz-adv-x="211" 
d="M117 700h74l-73 -106h-86z" />
    <glyph glyph-name="quoteright" unicode="&#x2019;" horiz-adv-x="211" 
d="M106 594h-74l73 106h86z" />
    <glyph glyph-name="quotesinglbase" unicode="&#x201a;" horiz-adv-x="286" 
d="M105 93h86l-62 -78q-11 -13 -27 -20.5t-32 -7.5h-38z" />
    <glyph glyph-name="quotedblleft" unicode="&#x201c;" horiz-adv-x="411" 
d="M102 672q11 13 27 20.5t32 7.5h38l-73 -106h-86zM264 672q10 13 26 20.5t33 7.5h38l-74 -106h-86z" />
    <glyph glyph-name="quotedblright" unicode="&#x201d;" horiz-adv-x="411" 
d="M274 700h87l-63 -77q-11 -13 -26.5 -21t-32.5 -8h-38zM113 700h86l-63 -77q-10 -13 -26 -21t-33 -8h-37z" />
    <glyph glyph-name="quotedblbase" unicode="&#x201e;" horiz-adv-x="418" 
d="M118 93h86l-62 -78q-11 -13 -27 -20.5t-33 -7.5h-37zM272 93h86l-62 -78q-11 -13 -27 -20.5t-32 -7.5h-38z" />
    <glyph glyph-name="dagger" unicode="&#x2020;" horiz-adv-x="521" 
d="M81 411v89h135v200h100v-200h135v-89h-135v-411h-100v411h-135z" />
    <glyph glyph-name="daggerdbl" unicode="&#x2021;" horiz-adv-x="521" 
d="M81 411v89h135v200h100v-200h135v-89h-135v-142h135v-89h-135v-180h-100v180h-135v89h135v142h-135z" />
    <glyph glyph-name="bullet" unicode="&#x2022;" horiz-adv-x="390" 
d="M110 311q0 18 7 34t19 28.5t28.5 19.5t34.5 7t34 -7t28 -19.5t19 -28.5t7 -34t-7 -34t-19 -28.5t-28 -19.5t-34 -7t-34.5 7t-28.5 19.5t-19 28.5t-7 34z" />
    <glyph glyph-name="ellipsis" unicode="&#x2026;" horiz-adv-x="561" 
d="M27 40q0 23 16 39t39 16t39 -16t16 -39t-16 -39t-39 -16t-39 16t-16 39zM224 40q0 23 16 39t39 16t39 -16t16 -39t-16 -39t-39 -16t-39 16t-16 39zM421 40q0 23 16 39t39 16t39 -16t16 -39t-16 -39t-39 -16t-39 16t-16 39z" />
    <glyph glyph-name="perthousand" unicode="&#x2030;" horiz-adv-x="1071" 
d="M171 0l278 700h107l-278 -700h-107zM147 727q30 0 55 -10.5t43.5 -29.5t29.5 -45.5t11 -57.5t-10.5 -57t-29.5 -45t-44.5 -30t-55.5 -11t-55 11t-44 30t-29.5 45t-10.5 57t10.5 57.5t29.5 45.5t44.5 29.5t55.5 10.5zM588 273q30 0 55.5 -10.5t44 -29.5t29 -45t10.5 -57
t-10.5 -57.5t-29 -45.5t-44 -30t-55.5 -11t-55 11t-44 30t-29.5 45.5t-10.5 57.5t10.5 57t29.5 45t44 29.5t55 10.5zM915 273q30 0 55 -10.5t44 -29.5t29.5 -45t10.5 -57t-10.5 -57.5t-29.5 -45.5t-44 -30t-55 -11t-55.5 11t-44 30t-29 45.5t-10.5 57.5t10.5 57t29 45
t44 29.5t55.5 10.5zM147 511q27 0 45.5 21t18.5 52t-18.5 52t-45.5 21q-28 0 -46.5 -20.5t-18.5 -52.5q0 -31 18 -52t47 -21zM588 58q28 -1 46.5 20t18.5 52q0 32 -18.5 52.5t-46.5 20.5t-46 -20.5t-18 -52.5q0 -31 18 -51.5t46 -20.5zM915 58q28 -1 46.5 20t18.5 52
q0 32 -18.5 52.5t-46.5 20.5t-46.5 -20.5t-18.5 -52.5q0 -31 18.5 -51.5t46.5 -20.5z" />
    <glyph glyph-name="guilsinglleft" unicode="&#x2039;" horiz-adv-x="327" 
d="M308 399l-136 -117l136 -116l-49 -59l-193 172v6l195 172z" />
    <glyph glyph-name="guilsinglright" unicode="&#x203a;" horiz-adv-x="327" 
d="M66 399l47 58l195 -172v-6l-193 -172l-49 59l136 116z" />
    <glyph glyph-name="fraction" unicode="&#x2044;" horiz-adv-x="403" 
d="M279 700h106l-267 -700h-107z" />
    <glyph glyph-name="franc" unicode="&#x20a3;" horiz-adv-x="566" 
d="M45 0v700h491v-89h-391v-196h300v-89h-300v-326h-100zM8 244h228v-89h-228v89z" />
    <glyph glyph-name="lira" unicode="&#x20a4;" horiz-adv-x="578" 
d="M59 229v44h-55v89h55v72v17q0 57 19.5 105.5t54 83.5t81.5 55t102 20t102 -20t81.5 -55t54 -83.5t19.5 -105.5h-100q0 38 -12 70t-33 55t-49.5 36.5t-62.5 13.5q-33 0 -62 -13.5t-50 -36.5t-33 -55t-12 -70v-89h216v-89h-216v-44h212v-77h-212v-63h409v-89h-509v152h-57
v77h57z" />
    <glyph glyph-name="peseta" unicode="&#x20a7;" horiz-adv-x="1312" 
d="M43 0v700h307q45 0 82 -17t63 -45.5t40.5 -65.5t14.5 -78q0 -44 -16.5 -85.5t-46 -73t-69.5 -50.5t-88 -19h-187v-266h-100zM143 611v-256h187q25 0 46.5 12t38 31t26 44t9.5 50q0 23 -7.5 44t-21 38t-32.5 27t-43 10h-203zM578 500h58v100h100v-100h84v-89h-84v-317h73
v-94h-99q-34 0 -54 20.5t-20 54.5v336h-58v89zM860 155h100q0 -15 9 -29.5t25.5 -26t40.5 -18.5t54 -7q109 0 109 58q0 17 -12 27.5t-32.5 18.5t-47.5 14t-56 14q-39 11 -71 24t-55 30.5t-35.5 41t-12.5 54.5q0 40 18.5 69.5t46.5 49.5t61.5 30t64.5 10q50 0 91.5 -11
t71 -31t46 -49.5t16.5 -67.5h-100q0 30 -33.5 50t-84.5 20q-44 0 -71 -17t-27 -49q0 -15 8.5 -25.5t22.5 -18.5t32.5 -14.5t38.5 -12.5q46 -13 86 -25t69.5 -29t46.5 -42t17 -66q0 -43 -16.5 -70.5t-44.5 -43.5t-64.5 -22t-77.5 -6t-82.5 10.5t-75.5 31.5t-55 53t-21 75z
" />
    <glyph glyph-name="Euro" unicode="&#x20ac;" horiz-adv-x="606" 
d="M146 230q29 -71 89 -113.5t138 -42.5q42 0 79 12.5t67.5 36t54 55.5t36.5 71h103q-15 -58 -46.5 -107t-75.5 -83.5t-99 -54t-118 -19.5q-60 0 -113 18t-96 50t-75 77t-49 100h-89v88h73q-1 8 -1 16v16v22.5t2 22.5h-74v88h94q18 52 49.5 95t74 73.5t94.5 47t110 16.5
q63 0 118 -19.5t99 -54.5t75.5 -84t46.5 -108h-103q-13 39 -36.5 71.5t-54 56t-67.5 36t-79 12.5q-74 0 -131.5 -38.5t-88.5 -103.5h169v-88h-195q-3 -22 -3 -46v-15.5t1 -15.5h197v-88h-176z" />
    <glyph glyph-name="trademark" unicode="&#x2122;" horiz-adv-x="648" 
d="M353 762l97 -187l97 187h37v-262h-37v190l-79 -151h-36l-79 151v-190h-37v262h37zM178 729v-229h-38v229h-89v33h216v-33h-89z" />
    <glyph glyph-name="product" unicode="&#x220f;" horiz-adv-x="654" 
d="M58 -250v950h533v-950h-100v862h-333v-862h-100z" />
    <glyph glyph-name="summation" unicode="&#x2211;" horiz-adv-x="684" 
d="M57 -159l221 387l-221 383v89h428v-89h-309l211 -376v-13l-211 -381h309v-89h-428v89z" />
    <glyph glyph-name="approxequal" unicode="&#x2248;" horiz-adv-x="595" 
d="M110 281v83q17 -5 36.5 -8t43.5 -3q40 0 69 7.5t55 17t52.5 17t61.5 7.5q23 0 42.5 -4t37.5 -10v-83q-18 6 -37.5 10t-42.5 4q-35 0 -61.5 -7.5t-52.5 -17t-55 -17t-69 -7.5q-24 0 -43.5 3t-36.5 8zM103 281v83q17 -5 36.5 -8t43.5 -3q40 0 69 7.5t55 17t52.5 17
t61.5 7.5q23 0 42.5 -4t37.5 -10v-83q-18 6 -37.5 10t-42.5 4q-35 0 -61.5 -7.5t-52.5 -17t-55 -17t-69 -7.5q-24 0 -43.5 3t-36.5 8zM110 102v83q17 -5 36.5 -8t43.5 -3q40 0 69 7.5t55 17t52.5 17t61.5 7.5q23 0 42.5 -4t37.5 -10v-83q-18 6 -37.5 10t-42.5 4
q-35 0 -61.5 -7.5t-52.5 -17t-55 -17t-69 -7.5q-24 0 -43.5 3t-36.5 8z" />
    <glyph glyph-name="notequal" unicode="&#x2260;" horiz-adv-x="398" 
d="M58 348v88h278v-88h-278zM58 183v89h278v-89h-278zM250.433 552.344h73.1924l-184.361 -483.344h-73.8828z" />
    <glyph glyph-name="lessequal" unicode="&#x2264;" horiz-adv-x="581" 
d="M497 499v-98l-237 -117l237 -116v-100l-350 171v89zM128 -89v89h371v-89h-371z" />
    <glyph glyph-name="greaterequal" unicode="&#x2265;" horiz-adv-x="581" 
d="M146 68v100l237 116l-237 117v98l351 -171v-89zM144 -89v89h371v-89h-371z" />
    <glyph glyph-name="f_f" unicode="&#xfb00;" horiz-adv-x="545" 
d="M78 500v125q0 34 20.5 54.5t54.5 20.5h100v-89h-75v-111h163v125q0 34 20.5 54.5t54.5 20.5h100v-89h-76v-111h75v-89h-75v-411h-100l1 411h-163v-411h-100v411h-52v89h52z" />
    <glyph glyph-name="fi" unicode="&#xfb01;" horiz-adv-x="487" 
d="M80 500v125q0 34 20.5 54.5t54.5 20.5h100v-89h-75v-111h74v-89h-74v-411h-100v411h-52v89h52zM338 500h100v-500h-100v500zM322 649q0 27 19.5 46.5t46.5 19.5t46.5 -19.5t19.5 -46.5t-19.5 -46.5t-46.5 -19.5t-46.5 19.5t-19.5 46.5z" />
    <glyph glyph-name="fl" unicode="&#xfb02;" horiz-adv-x="487" 
d="M179 411v-411h-100v411h-52v89h52v125q0 34 20.5 54.5t54.5 20.5h266v-606h59v-94h-84q-34 0 -54.5 20.5t-20.5 54.5v536h-141v-111h74v-89h-74z" />
    <glyph glyph-name="f_f_i" unicode="&#xfb03;" horiz-adv-x="748" 
d="M74 500v125q0 34 20.5 54.5t54.5 20.5h100v-89h-76v-111h173v125q0 34 20.5 54.5t54.5 20.5h100v-89h-75v-111h74v-89h-74v-411h-100v411h-173v-411h-100l1 411h-53v89h53zM604 500h100v-500h-100v500zM654 715q27 0 46.5 -19.5t19.5 -46.5t-19.5 -46.5t-46.5 -19.5
t-46.5 19.5t-19.5 46.5t19.5 46.5t46.5 19.5z" />
    <glyph glyph-name="f_f_l" unicode="&#xfb04;" horiz-adv-x="749" 
d="M173 411v-411h-100v411h-52v89h52v125q0 34 20.5 54.5t54.5 20.5h100v-89h-75v-111h173v125q0 34 20.5 54.5t54.5 20.5h266v-606h58v-94h-83q-34 0 -54.5 20.5t-20.5 54.5v536h-142v-111h75v-89h-75v-411h-100l1 411h-173z" />
    <glyph glyph-name="longs_t" unicode="&#xfb05;" horiz-adv-x="616" 
d="M253 700v-89h-75v-611h-100v700h175zM345 500h58v100h100v-100h84v-89h-84v-317h73v-94h-99q-34 0 -54 20.5t-20 54.5v336h-58v89z" />
    <glyph glyph-name="K.2" horiz-adv-x="614" 
d="M153 700v-299h68l225 299h119l-261 -345l267 -355h-119l-236 312h-63v-312h-100v700h100z" />
    <glyph glyph-name="r.2" horiz-adv-x="336" 
d="M66 0v425q0 34 20.5 54.5t54.5 20.5h160v-89h-135v-411h-100z" />
    <glyph glyph-name="R.2" horiz-adv-x="606" 
d="M52 0v700h307l-5 -89l5 89q45 0 81.5 -17t63 -45.5t41 -65.5t14.5 -78q0 -38 -12 -73.5t-34 -65.5h46v-355h-100v266h-307v-266h-100zM152 355h187q25 0 46.5 12t38 31t26 44t9.5 50q0 23 -7.5 44t-21.5 38t-33 27t-43 10h-202v-256z" />
    <glyph glyph-name="three.3" horiz-adv-x="531" 
d="M16 166h97q6 -22 20.5 -39.5t34.5 -28.5t43.5 -17t47.5 -6q27 0 54 7.5t48 22.5t34.5 37.5t13.5 51.5q0 30 -13 51.5t-34.5 35.5t-48.5 21t-54 7h-47v82h47q24 0 46.5 8t40.5 22.5t29.5 36t11.5 48.5q0 30 -10 52.5t-27.5 37t-41 22t-49.5 7.5q-25 0 -47.5 -7t-40 -21
t-28 -35t-11.5 -49h-100q3 48 23 86t52 63.5t71.5 39t81.5 13.5t82.5 -14t73 -41.5t52.5 -67.5t20 -92q0 -45 -21 -85.5t-52 -64.5q17 -13 33.5 -29.5t29 -36t20 -42.5t7.5 -49q0 -52 -21 -91t-55.5 -65t-78.5 -39t-90 -13q-43 0 -84.5 11.5t-75 34t-56 56.5t-28.5 79z" />
    <glyph glyph-name="grave.case" horiz-adv-x="317" 
d="M77 851h102l74 -106h-90z" />
    <glyph glyph-name="dieresis.case" horiz-adv-x="367" 
d="M43 794q0 23 16 39t39 16t39 -16t16 -39q0 -22 -16 -38t-39 -16t-39 16t-16 38zM275 849q23 0 39 -16t16 -39q0 -22 -16 -38t-39 -16t-38.5 16t-15.5 38q0 23 15.5 39t38.5 16z" />
    <glyph glyph-name="macron.case" horiz-adv-x="506" 
d="M7 826h500v-71h-500v71z" />
    <glyph glyph-name="acute.case" horiz-adv-x="317" 
d="M188 740h-90l74 106h102z" />
    <glyph glyph-name="circumflex.case" horiz-adv-x="428" 
d="M112 740l74 106h107l74 -106h-81l-46 58l-47 -58h-81z" />
    <glyph glyph-name="caron.case" horiz-adv-x="306" 
d="M58 846h81l47 -58l47 58h74l-73 -106h-102z" />
    <glyph glyph-name="breve.case" horiz-adv-x="403" 
d="M82 811v38h75v-42h147v42h75v-38q0 -34 -20.5 -54.5t-54.5 -20.5h-147q-34 0 -54.5 20.5t-20.5 54.5z" />
    <glyph glyph-name="dotaccent.case" horiz-adv-x="239" 
d="M67 802q0 27 19.5 46.5t46.5 19.5t46.5 -19.5t19.5 -46.5t-19.5 -46.5t-46.5 -19.5t-46.5 19.5t-19.5 46.5z" />
    <glyph glyph-name="ring.case" horiz-adv-x="314" 
d="M56 822q0 21 8 39.5t22.5 33t33.5 22.5t40 8t39.5 -8t33 -22.5t22.5 -33t8 -39.5t-8 -39.5t-22.5 -33t-33 -22.5t-39.5 -8t-40 8t-33.5 22.5t-22.5 33t-8 39.5zM160 767q23 0 39 16t16 39t-16 39t-39 16t-39.5 -16t-16.5 -39t16.5 -39t39.5 -16z" />
    <glyph glyph-name="tilde.case" horiz-adv-x="458" 
d="M88 749v65q13 -4 28 -6.5t35 -2.5q31 0 53.5 6t43 13t41 13t47.5 6q19 0 33.5 -3t28.5 -8v-64q-14 5 -28.5 8t-33.5 3q-27 0 -47.5 -6t-41 -13.5t-43 -13.5t-53.5 -6q-20 0 -35 2.5t-28 6.5z" />
    <glyph glyph-name="hungarumlaut.case" horiz-adv-x="591" 
d="M333 749h-90l74 106h102zM564 749h-90l74 106h102z" />
    <glyph glyph-name="caron.salt" horiz-adv-x="304" 
d="M55 733h81l47 -58l47 58h74l-73 -106h-102z" />
    <glyph glyph-name="uni0326.salt" horiz-adv-x="368" 
d="M204 -191h-90l74 106h102z" />
    </font>
</defs>
</svg>
